<mxfile host="app.diagrams.net" modified="2023-07-10T00:54:17.289Z" agent="Mozilla/5.0 (Windows NT 10.0; Win64; x64) AppleWebKit/537.36 (KHTML, like Gecko) Chrome/114.0.0.0 Safari/537.36" etag="Kpb7grAA9zX7rAq_5zH7" version="21.5.2" type="device">
  <diagram name="페이지-1" id="LRV9yE4w53HvQbfg9ijL">
    <mxGraphModel dx="768" dy="430" grid="1" gridSize="10" guides="1" tooltips="1" connect="1" arrows="1" fold="1" page="1" pageScale="1" pageWidth="827" pageHeight="1169" math="0" shadow="0">
      <root>
        <mxCell id="0" />
        <mxCell id="1" parent="0" />
        <mxCell id="JSBXhnSBdoEHyfM7yJ-U-1" value="" style="rounded=0;whiteSpace=wrap;html=1;" parent="1" vertex="1">
          <mxGeometry x="20" y="80" width="770" height="500" as="geometry" />
        </mxCell>
        <mxCell id="JSBXhnSBdoEHyfM7yJ-U-2" value="JS Runtime" style="rounded=1;whiteSpace=wrap;html=1;" parent="1" vertex="1">
          <mxGeometry x="20" y="20" width="120" height="60" as="geometry" />
        </mxCell>
        <mxCell id="JSBXhnSBdoEHyfM7yJ-U-3" value="" style="rounded=0;whiteSpace=wrap;html=1;" parent="1" vertex="1">
          <mxGeometry x="250" y="120" width="210" height="310" as="geometry" />
        </mxCell>
        <mxCell id="JSBXhnSBdoEHyfM7yJ-U-4" value="Memory Heap" style="rounded=1;whiteSpace=wrap;html=1;" parent="1" vertex="1">
          <mxGeometry x="250" y="120" width="210" height="40" as="geometry" />
        </mxCell>
        <mxCell id="JSBXhnSBdoEHyfM7yJ-U-7" value="" style="rounded=0;whiteSpace=wrap;html=1;" parent="1" vertex="1">
          <mxGeometry x="40" y="120" width="200" height="310" as="geometry" />
        </mxCell>
        <mxCell id="JSBXhnSBdoEHyfM7yJ-U-6" value="Call Stack" style="rounded=1;whiteSpace=wrap;html=1;" parent="1" vertex="1">
          <mxGeometry x="40" y="120" width="200" height="40" as="geometry" />
        </mxCell>
        <mxCell id="JSBXhnSBdoEHyfM7yJ-U-9" value="Event Loop" style="ellipse;shape=umlControl;whiteSpace=wrap;html=1;" parent="1" vertex="1">
          <mxGeometry x="30" y="490" width="70" height="80" as="geometry" />
        </mxCell>
        <mxCell id="JSBXhnSBdoEHyfM7yJ-U-11" value="Web API" style="rounded=1;whiteSpace=wrap;html=1;" parent="1" vertex="1">
          <mxGeometry x="580" y="90" width="200" height="40" as="geometry" />
        </mxCell>
        <mxCell id="JSBXhnSBdoEHyfM7yJ-U-13" value="" style="rounded=0;whiteSpace=wrap;html=1;" parent="1" vertex="1">
          <mxGeometry x="510" y="450" width="190" height="90" as="geometry" />
        </mxCell>
        <mxCell id="JSBXhnSBdoEHyfM7yJ-U-19" value="Callback Queue" style="rounded=1;whiteSpace=wrap;html=1;" parent="1" vertex="1">
          <mxGeometry x="510" y="410" width="190" height="40" as="geometry" />
        </mxCell>
        <mxCell id="JSBXhnSBdoEHyfM7yJ-U-25" value="Javascript Engine" style="swimlane;whiteSpace=wrap;html=1;" parent="1" vertex="1">
          <mxGeometry x="30" y="90" width="440" height="350" as="geometry" />
        </mxCell>
        <mxCell id="xzAWG37LkjonEWlrzQVd-4" value="anonymous&lt;br&gt;실행 컨텍스트&lt;br&gt;Execution Context&lt;br&gt;&lt;br&gt;" style="rounded=0;whiteSpace=wrap;html=1;" parent="1" vertex="1">
          <mxGeometry x="40" y="360" width="200" height="70" as="geometry" />
        </mxCell>
        <mxCell id="CPHE-589CAZdL8Mg9o2y-3" style="edgeStyle=orthogonalEdgeStyle;rounded=0;orthogonalLoop=1;jettySize=auto;html=1;exitX=0;exitY=0.5;exitDx=0;exitDy=0;entryX=0;entryY=0.5;entryDx=0;entryDy=0;" edge="1" parent="1" source="CPHE-589CAZdL8Mg9o2y-1" target="CPHE-589CAZdL8Mg9o2y-2">
          <mxGeometry relative="1" as="geometry" />
        </mxCell>
        <mxCell id="CPHE-589CAZdL8Mg9o2y-1" value="Event&lt;br&gt;클릭 이벤트 발생" style="rounded=0;whiteSpace=wrap;html=1;" vertex="1" parent="1">
          <mxGeometry x="580" y="200" width="200" height="70" as="geometry" />
        </mxCell>
        <mxCell id="CPHE-589CAZdL8Mg9o2y-4" style="edgeStyle=orthogonalEdgeStyle;rounded=0;orthogonalLoop=1;jettySize=auto;html=1;exitX=0;exitY=0.25;exitDx=0;exitDy=0;entryX=1;entryY=0.5;entryDx=0;entryDy=0;" edge="1" parent="1" source="CPHE-589CAZdL8Mg9o2y-2" target="CPHE-589CAZdL8Mg9o2y-5">
          <mxGeometry relative="1" as="geometry" />
        </mxCell>
        <mxCell id="CPHE-589CAZdL8Mg9o2y-2" value="DOM" style="rounded=0;whiteSpace=wrap;html=1;" vertex="1" parent="1">
          <mxGeometry x="580" y="130" width="200" height="70" as="geometry" />
        </mxCell>
        <mxCell id="CPHE-589CAZdL8Mg9o2y-6" style="edgeStyle=orthogonalEdgeStyle;rounded=0;orthogonalLoop=1;jettySize=auto;html=1;exitX=0.75;exitY=1;exitDx=0;exitDy=0;entryX=0.25;entryY=0;entryDx=0;entryDy=0;" edge="1" parent="1" source="CPHE-589CAZdL8Mg9o2y-5" target="JSBXhnSBdoEHyfM7yJ-U-19">
          <mxGeometry relative="1" as="geometry" />
        </mxCell>
        <mxCell id="CPHE-589CAZdL8Mg9o2y-5" value="" style="shape=image;verticalLabelPosition=bottom;labelBackgroundColor=default;verticalAlign=top;aspect=fixed;imageAspect=0;image=data:image/png,iVBORw0KGgoAAAANSUhEUgAAAzoAAADDCAYAAABKxGT4AAAgAElEQVR4nOzde1xUdf748ddqNATLCCWGP1gNKRDScigXKUwcN/mKwXrDdQU1Qyw1LcXygql5SV1vZV4qJVPBNfHSSuniJmpSxNeSNhWUJMqvhisaOC7GSNrvjzkDA8xwc4ZBfD8fDx+P48w5Zz5zOHPO530+n8/78zvgN4QQQgghhBCiBWll7wIIIYQQQgghhLVJoCOEEEIIIYRocSTQEUIIIYQQQrQ4EugIIYQQQgghWhwJdIQQQgghhBAtjgQ6QgghhBBCiBZHAh0hhBBCCCFEiyOBjhBCCCGEEKLFkUBHCCGEEEII0eJIoCOEEEIIIYRocSTQEUIIIYQQQrQ4EugIIYQQQgghWhwJdIQQQgghhBAtjgQ6QgghhBBCiBZHAh0hhBD24wIHDsKBv9q7IHcYOe5CiDvA74Df7F0IUx3e+5nZWlcgl00PPswRexdIiNvIjNTtxPqbfy9n41AiFzZtecSdoeK8K85gSvdV7Knvhi5wYC9o2wI3IDEcxpy1sG6HJzgc/xQuAJxmy0u7WQn0GxzHwqfuM6xzejeBa0+b2fg+Vs2JI+Te2ta5fUweP50Rfoblq5+tp9fOy4AfW98aSGcALpOxfD2TLB1LYMNuiDWsTHoC9Nll2zLbQ+R777FC6wrkkfjgLBY1Yh+NPreF/XXTsuaNQYS6l5OTuo7YeXno7F0m0eSkRUdYhdOQtxn4QT7zT/5E9AB7l8aevIldPIk9hzZyZvcgexdGWEHo6BFs2L2SY6cXMMPehWlhNmxWghwgc2UtQU51N29ULF76pcz6BatDSMCjrIobweFlkUxu8k+v6nq58ViUcV1f/+3GzIVcZX3tbNjwqNWLJu5EvhqmrIwnLTOZzPe62LEgDkyZFUuYbztUbp5oRk5ibkjTlkDuHc3DXfYugGgZ2vaNpn+IK1DCKXsXxq40/HlICAEAVxu2ZeXTx7pZap1ZFDG06lPLhAWcGe3bsIKIKoIHRRDqD5DXoO1qa13jRjn6n89x7HAqiW9mcOjCrZbSggGTOLYsBHU9V2/KVr/4tZUtCrmb4InEOjY4V8IlMLTolFyquM4cLf5vxSrXS/5rZkPr6x7ajxA/gKb5vOoKikrAz3CtKCoqUV79L7pSQAVQwqWiOnbyb+g/D44tBFcVxK6G3HBY3sDr1p2u1t95FSUcmjqWMR/ZukR2FtCTmIgg1NDw1hOT65UufR6BY0/cQkGcUbs4mPz/blQut7C7RmjsvUNYl7ToCCFEU2vtgMrdm+Ahk9iwfwmL+jrUvU0L4j0IZvU2LJedgBcX12Ojmzeoq8FCr2/61h170Ju0aJn3K1d/qXs/BbsgehOUAbSFWcvA2wrlE8L+SlixPo18HUA5RV/tZMM+e5dJ2IO06AjR7BSQ8uw7tfYFv3KmyQojbln1v2c7NM8E8ec+Ifi4AU7eRM0cSdr+RA5Z+6PTNxP7bCqOJi9FvraEKB+gOIsVk3eRbfJeU51Xq8eDK4AekmdCekN3oC/jknH55ytcB+62YvluH2VcrwhornBJB9zbsD3sXQy7noDhD4HrU7AhEvrIQJSGM/N7quo6F79twvIIdDsSCdtRV1OxaOkk0BGi2SlHl1FApr2LIayk+t+zgMyMLNaqj7DhwAxC3QAvDZEhcCjDyh+tKyE7o6TKS6HXK8t1zg7nmXY6hHsalgv2wJjv6rvlJS79jKEiryvlqPHlX8rQYwh0Lv3nsnUL20zt++kSC7kPKEX3s/HVX7lqbPIquUxBA/YXvRK0a8ED0I4G7Z5GBJ93PPv8noQQtbNToKOhw7SlDOwXSOf2rji0Vl7Wl3HlhmOtW1bwiaf3a+PRBnrT3kl57UYZVwoLyNixgo9XJ1Jej904RKxn6HP9CfT1oI3KdD+5pG9ay/6NNffTM/Umo/yB4nTmdf8TZsfPJpxkw2h/oISDU+8l2dgvd8CnLF6mpW1xOvO6x+Gw8lPGh3vTpjVcOZ7IvIFxXFFPoPem+Qzt6orDjTLy977GosnLa/8O4wYT5OOKk3Isy6+VkP/lTrbPjuOs2f7/8UQfXUpvN7iU/grTxy7HISKJZ+PDCfRyxUE5DoX56Wyf+QzHv6m6dWV2vOpc6b3sJr2XmXkrN5ExEXEWv8etco+IYNG4MII7tkOlqm1Ny32lK/bh0w6V8by8dpH8L9NYMzuVPTWO5SD2nBlmGJNTnf8wzpwZ1qDPbzbUnsTMHMmYPl3wclO6Vd0oR1d4grT3N7No8/ma/a+N/auLM5jSfR2qlQuYEe6NujXojm8jduAustW+zN00lZiurnCjlPy9q4ianG2hL7czkdNimTAgCB93Y9eucvRFBWR+tI0ZS05gfhhCFzYcnU2oW2U/b/eIYayND0Pj5VzxXYryj7Bh5jskVju3Lfe59yX2zHZizbzTqP7kumzSvi0htJcrcDfqtpVvqRMWcEwZW6XLWE7gs1mW9+M7jLS9g/AByN9FWNg28htWkvpRexIzcxgjegWa/D2AayXoWlverLr4MGXhKiTOtmoJ0dfVo8uEy70dmTNMS0in+7nbAbhZxuXvvmDbtv8l8eeq65pmOavKjxFvTWeEmXcqs6GZ2Y+S+a2iDA/dz92tDGW4WpjDvi37WVxY/+9Sw81f6+zmV8VBSP43xD8KdIb43pB+8BY+v16cCR0dQUyYhocD2qFWOVdec/WlFP2YzZ51iSxKLa1zP5HTYhnTrws+7V2r7EN3o57tfFY6txum8joFBSSFT2NuLUM5Yj7YyNwQZ6CUzDmjGZFccx11jyBmvDyMsK6eqI33QH0J544fYcOb20j60kKtqGIsp5KdTu3J+IXjGKH1xV3Zj774vPnMZbWMA1RrZ3PGbCtx47Pg1a6W+3FDP9PDm/EJIxjaw6/yHgiG8ZX6Uoq+TWVGTGqVwNb6945G3gMr/ibGuoYzka9PYkpEF7zUyn6uXST/8C6mT0yvpRXSoOH1IqPKv4dx/GfFOarxRN0aw704J5VF47bVsp9b0/SBTreljFodT08PM++pHGlTj120eflrZr+oqblua0faePnT/+X19B4ykLcin1H6Z5qhHk7Qe6uJe9xMZb21I228NAxMWIprcWJlkGJlbRI+Ji7CG2Oc1qZrLHEJuzny+FKiuzpWlMUnYj6jvlrOphoXNm98Vn7OSxEeFfswcnBypbM2ltm9+nNwXn+Sk2s7lR3p/N5PTNVW+6O0dqS9bzgvJZ9k/cCHyWq24+kcCFu4gBV/8abW+KaOfUSt/BtzIzxr7sOpHT7aEazoFUbkvGmMSa7rxnub6xZGyvuxaKrfuVo7oPbSEDVbQ+TAbYwZtYtMC78v94Q5TImo/Huouw7j9YQMMh+fQ0xX5ULb2hmfiEms+crMTVutYcWeqUR6VR+74oDK3ZfQuNlkRmQwd8gqkmq9ODoT895q5mrb1fgu7r5aZiR70W7gLBbZ6dxWq4zf7zq6S5Wv694+QvZwXzQqUHcPY4o6ixUWjrXPqCBDkAPkf/lPmwQ56r4jSFkWgU/1Cw2Ak2u9kx0QCU8ol5kLn0PD8h5cZtLrZgbznP2CXi990aA9PRIcyXtDAwzBhVErR+7z0zLhVU/Ub+xmpU3z0Lame0gkbw+uWQYXz0CGvupJ25UbmWopC13mbgLNNB2sXLuYlY0s0dR/wIRHwRHQxgC2DnQSZrDBUqIUlTPuviHErgwi+JHJRC68aH69blq2rH6BYLP1Ced6nZdWO7cb7ARJX14ktF87wJvQcd4w2VI7XBh/7q48pNGdIM1MkKN5eTaJL3apWV6VK16PRzA3ScvQzbOImWfmIZXp6j0Gsee9YQRUOx6GzGULSPOYR/D4W0kS0Pyph8Sy5/UwvMxVKFo7oHJyxcvPG3ebFsJK90DnIDZkxBNa/Tfi1A6ffi+QtNuZyIGpFu4b1q0XmT1HWzvg3nUQK/b78vCQeTa5FzdtoKOOJ3pdPD2Vs+NSXjppKbs5/l0xuPjj31dL717BdKjlyuI07STz4/wNFfsbJZw6vJPdmw9yBTfaPz2cgQOD6eAETl7hvJS8ntci4rhSYy/h9EzewCh/JZi4UcKpw3tJ272Xwqvg9FBvHuulJSjYzeqHoFIAQ4d74KTPJXnqVtynzaevF7TXvs3Qjo5cy9/FW2+WMXDZcDqrHHlEGw/JVVt12iR8XBHkXDm+lbWzl5N/PBs8wvEZt5S4Yf60be1B75k7+OmkDwe/MV+SNk8mMFXlCJRxNmMXuz/cS6G6N/3HRdPTyxFU/gydmUDWs5XVkrNLxjB9c2XrW4cxqxmvZF07suxFPjF3HbySe8tHzRz1kHEsMgY51wpIWbicFR9epEjtSlT8VGZE+yo/rPOkDJnMDDPHQZMwp+LHrDu+i0WzU0k5Xgoe7Yga9wIzhnVB3bodoTNnM/fkNOZW7CON6c9mmwTdIcz9IEJ5up7KiPnm+iI1477aag0b1ilBjv48h9atY9HmPPJ1Dvj01TJj2jBCOzqj6jqMNSsLCI011xrjy4jh7VDp80iamor7tHjCvMBLO4Oojg7o81OZ+2Y5Y5YNwkflzMNaDVQJxNsxI9l4gS8lJ/kdpq/LIucCuHcNYsK8WEOLkEcIM94/x8lwy/3iVU9OYq7KAUO3klS2fJhFjroL48cNI9jLAVS+RM0MYpFJi8mGmdM4ZPIUpWJMSy1jp8oKzzX0SEO3QQzVKJWXH7PYYnqq6NL4x9FhaEKcQeVH8HMO8Ka5p7GujOmh9APTnyBteYmZdW5Rt0EkrYzARwVQStFXGWzZnU72ecDTl8g+QYQ+2aXiyW9t4v9HGZsD5Ni8xcCCDv14z8+Ru/mVq6e/4KN//psMvSv9wiMY0MUV7vFjxPhAji4+hvFPsjnpbTJM7pb9RkxkQCeAfD56fS/mxjjrf6nlxt+hL2/7OXI3cPVEOpsPnORb0zK0uh/twAC838ppUBe0W/J3+GIiaN3A0R/iAcv9CKzkRinn8k9w7Ms8Th49Qc5VwMWTsL8MJirEExUOBIyezYrMF5lSvS+dWsOGdS8QrNQndHkZ7ElJJ+27UnDxJLRvEGG9gvCqLVKx4rndGIfezuJcvwi8AK/uYYTyjtlxeuqXgwhQylD0+S6Sqr8/ZBJrlQqk/lwGa97YTNL+EnRqV8JGjmTG2BC8nJwJGDmHFTkTGLPDUn8Xb6ISfQ09InR57Hk/lZRvSgl4ZhgThhjuo+59RzDX16T1qfo4wC6DWDNVybqW8Q4TNpg7g0uxzXDA6vdj0+t3fQWxZqYxyCklPz2dfxzIMJwTOBPwZBce9PEm8N7iGq2m1rt3WOse6EzwzHjD31N/nswdO0n613nUTw5iwsggvFSg6jqIudGpZlsIG18vqkndYwFJ/r6oAP2PWSS9t4tDOk+iXh5HpI8DOHWpcS+2liYNdNovjKe3O0AZpzaPYdm8rVXeP7LvNX602CUKUM8n6i9KkKPPJTn2GQ5+WfkjupSxhuPL44lOW0pvd3Dyj2ZAdFyNlhCnhKUMNwY5RZm8Ne7Jql2zMrZydiPsVmuwWS4kNw/aU8aRhc9wcF8BHQbG09fLlTYdvUGfy6aJQ8jP8+bricPp7Att2nWuur1vEuNHG47FlS8XEh/zWuV7F/aSP2cv049/yuLFWtqqvHnm5QQOPmv++amDyhEo4ciSGDat36u8upVN+8pwzpxAoAra+PWmPQup6E2Rv4tLJo8AnEaurlj+9cJWLll7rIFFDkwYFVIZyIycVhnI6EpImTOLMzeWkDTSGxWeBI/yhm+qXXh9h7F4tOEHqPtyFaExGZWV9wsXSZkzj7Tjkzi0OAS1ypvIl4OYW/FjLCUnw3R/msqL3/VSMjMaU01xQB3iTbDF90s5k3HRQretWxOzahKh7gDnSYk2DQrLyd+fxpj92czdu5IYXwfUvYYxxTe7ZncLt3Z4UUrmwteZu6+cyIElhHm5ou7oCfo8EiduISXPgYcnDsLHF9TtvMHkMu3zejyx/oYLfObCsYzYWHlTLjqexdyBxziZuIZFvVxR+UYwJXqX2Ys0gErlAJSQuWQWI9YbnwoXkLnvOimZsYYWEz8NYWSRVvEZBVWOremYlsaNnar29/T0JbJPT8J6+Rqa7q/lkRi/pcaNKmlzFhNCtLjjgKbfYHzeNNMlLWQwwR0Ni/rcLDZYvRXCgSmzBiuVrBIOzZlc7cldAZkfptU7xe4TxgrHNci014D3exy5+2Ypp3a+z/MZpUoW+FKOrv+A6y++wNCHHKH9Hxnx0DEylPFDl3WlmHZCC6k4JX/l6s8m44UaUgbKKNjzAc8eKDEpwxbUMyeivR944EEGkNPoFprGyMwDbRDgBk88BMvrPX6qERIXEbyw1Mx1rIDMfRn8Y7bxut2OwAhvSK96LQ1dGKtcq8rJ2fxqtZYKwz5O1pqy37rnNjjgVdt1u6yYk1+VVH0wlJfKofwIYnwAjy5EaeFQjcFRDowJ8VOeqJ/n0NvV7ylBrJkZYmhd+DGVmD4m1xJdCWmrV5GWcY605GH4qFwJjRuMzw5L3VsdUKlAn5/KlKgtpCmFzcyYRb7zajYorU+BA4EllZ9RZRxgW5Mg6vrFRt4DG6v6/dj0+l1Po0MIVILjczumETa9amtiZobl1ixr3Tusdw80/D0pymLRuOWV3bQzlpOmn03mi11Q4cyDT3aB5Grf65bqRTV5+fsC5eR/+DpRCcbujwVkfn437hkvEOxU815sLU2YXno+fXspbWc/7mV9tSCnXiYOoqdyAuZ/9EqVIKeCbjnJqzOVVhxHegxcWm2FWML6+SsBzAU+SXiyxviTyn1lU27L7gv5u0jZWPM7FKav4EgeQAG/Wuhz3nacVumuUkDavNfMr7TjDdJ/NCy2CQyns/m1gDJObTQNchS6iRz/Xll2b8+Dlr+JHfnhY2yS/fEYG8z8LbPnZVVc1L0eqDmBWfC4kIpjuWdehtlmfd2OzaQpx1IdGGK2r631eBP1wRK2WPw3iTE2+dzK7hG6jG1mW77gInNTjinBnDehoyxUIvLTmLux5lPDovREpWm63MJ4Cm8m9PKudR9QTsqSIxiegzkT2K+2WeDKydloGuQodGkcqzi3vQisZQ+3rtrfc2EsUVrfirFLE0JmscjcsU5P45ixS4KPhhFmevmE/kWDFwClHNudZv1Zv32HEdnNcLXUf7mNKbfYbbO9cRzSebBfLqQyTm1fz/CKIKfy9cX/+hZD3cSVTv71m9OqsS5/tsUkyDEq5cBpJaRqdT/eHWxahBrSTbrKef/Jxh92wVyQU8n0uq12dq72bgixvZTuqD/+kzl1dMcyy8rnNm5BTKntur1uJKE1Niphxb4TyvW0HcHDzEywqY4gVCkn+VlsqP5g6cUwpWJeSub7NR+YAPDNLrZnK9/PJ4gxtU2tVpTBXJMgx+jQgcqxOV4+9pwI1Mbaud1CF3hrsPI9UJ9HommQo9C9eaLi9+X+h5onhC3qRUXpy0yCHONO0smpKIht7sVNF+gMCeYRpc9n4be7zHQnq1ugxvhYpYAvl+y1vGLyLo4VGxYdOmqocq8IGUigUjEu/2Ynu+2WWqaMI9tiuFb9ZX02HyfUVQXQEviI8iXO5XLMYp/GdPJ/UJ60OLla7k+at4tlC80fzx8LbdAVxo70N6o/3nEl8hHlhnkujzSLx7KEYxXH0o12lla7nY3uojzdLCf/q1qaj3cWYGxsV7t7mVmhlMxtZp4Y6k+QklDH0z3fEAKVXZ7LybI83iTvBGeU37iqTS1/jbydxFjo33+yGZzb6q7DWJOxkjXR1StyAAWsOGA8Xt6ETaw+w4k3URrlu1vot3/L5RvWRQmkysn5Mv2WAylX5R5Q9jNN1yWruu/283ymhfl2Tp/HGP/ed/99titDyRes2XnZ7JzC+366ZObVppFukgDBsT4DZu1lSCAPK+fSuW8z6hxMbY61z+3G0r2ZRY7SDUD9eBgx1d73iQ9SBteXk71vZ41rYmwPpdu2voDMWq4BKXnG66Az7uZH6wMlHFq+ihRzB+OjczSig+7tZ3dlAOA1ZAl7FofUHN9iS1a+B+Z/+Lr5B2nkcbHY0lbWrxfp87Yxfqz5xEMni2x7L266rmt+7Sv6TRbmN6I1h+F0ND4NLC6wnGQAgOWcvbAU3AC39rSHysxoT3rTXlk8e3p3I8phLWX8au4ku1ZMYZ1XXA3uxn7HXuEsPnOzHp/Xng4DAHOJFW7UY2a5Zus0+RcwZK7pGMiYbltqtERoZlcO1i46Xb0C721yLMPYciaMurXDx9KxtApbZaSpnfoP7ZQnWQ5oXt7OmZfrsU17X6B6U345erPndgln6jq3H3GrGKjoFbGEMxF1lwEPLyLB/LxDNxoxO7fVVft7ql3R9AtixLDBRHZ1BSdPwl5fworCmuMQ8penkz3E0MXOXVOtD782rOKhjbl++9YQ6mUcp1jM/9XS/7pe/oeKa29ZjSc8TejmDbMBhoFJCmsHG94eG5oVramchxIM46jc2ta1shV4dGHGvEGEabxxV5tkXauLXzvlOlFOUX7jQmarntsAxRlM6b6q1vnPzDMZj6fuQthoSNpofM+VMSHKAw79aQ7WGKfnwB/uVR6SqLow5cx2ptT5ea60exjL969fG/wFWpa8bUzf2IWk0b6ocCZgyCQ2DBmH7txpjh1OJ2ldBodslB0MsPo9UH+jPvmHq7N+vUh/Ls/iA4k9Y8c24ndTf03Ydc2ohCuNeizQHidzDz3roUqCSZN7V/m123WmgM60b3CehGKKcmxRFnsrZ82uLKUy60nU+wuY+5d2htYrtStRry8gcaTxidcJti+p/uTAm3YNPpalLfJYVt74609/xUI2pMaqqMA0gK6Yk9YthW3pSsj+MI0pAycwI914PrYjbLyZm4kuncxc5UblEURsdOVbkcMClVbai2R+aOv2kRKKbnXc3Z05o6ewQD3kBTIPzyZW2wUvtwYEOVWUNrI+YcoK5/YtStqcpXTjcyawv8l1wGQMnu5oGmtrbOmHV4NTf5Vy5afGlfNOkb1wFqGTd5FTZAwSHFB7dSE0ehIbMpLJ3PsCsd1s9OHN4h7YsupF9plHpyk/VV9Gy0sGfIGia9DZCcjbypjw6o3ddxZddgFF+iDDvAFqX2IWriamet6FGxdJm7OItTUe71/kyjXACcjbRmD4rmbQAmAfJ4tKMTzLLeHQ9LGM2WGHQvxkyGSjAvI3RxM2rzFPo24X5aRM/ScjjhnmGVB19COStGpPtspZsfsYMd2CUOPMw08HQXIW0IVIjTKGJD+DNTavqDmgUnNrzWN7oHCJ4QxzNJfKt1lwrGMOrhbOjYrsWcW27EHnG0HS61rcWwOUkrMjkTXrs0jLN/291zYniolbrk9Y4dy+VelpHLugJcwDVP5BTFGnsUJnOgbvIpmbzXUnPkeRDkPvleIMZnRfRUpTlrsFK0rdRmTqNtx7hTAhWkvo437KHDQmUxNEWxhfeSuaxT2wZdWLmq5Fp6I51JX2ZideA/CmjZOlCUOXV0586eaNT60hbzwdjH0qiwqrTuh5urBifFAH//m1l/lWtK7nxKeNcoGKzKXuHjQoc2KL48D4WYMN6UGL8sg8fh6daZ+QaxfJT9/ClF4vMsFsSs0SdBXH0ov6NNC2VPkVB8KVPwTYLN9g7S6UVlxQ3Tu24AGvRrqCWvpJK5J3kalc+wxz6gDRYQQqT9xsNXcOgL7iuu2Gl9bSWu1Q1zNwKVN+m473QvURR83CPW35f0rPgatF9hsrYy/eXpWBTsmtTFhaB59R2op0yec+nEbk9IxqQU4dTOoT7SzWJxxwd7J8HbP2uX1rTMbjGdPJ04WYHsqohwsnSDHbAaUEnfGC6ebJw7ab9OeOVXQ4g7lj5xEaGE1w7Cr25Cn3SZUvMbNsUGNoFvfAllUvarpA59tCjLcNSwFGm4SPiethOUDIPWOMdLzpEW/xygSjB1VUAi7lHaTK7Wp/QUWKZKcALZ0bcWG4brxAKuN/aui2nql/seVtfA1nzhvL8AQho+1fZSg37dd7C0/YNBOTOfZ/xfxSXMixzRPqrgz5DmNoN8M8KdnJsxgxcDKBDw/lwQeVf4+8SNjY2mbuPcHJ88oN1k1D5OhbreCb3KxbY8PJ5mzg88okAz69hqGxRxn2FXDOODBXoyW2ORzAinNbefJrTb5deNDYRcBi94MCko4qXQRVfgSPhJinlUnXbDV3jiLtR2PXRFce7G4uC5kDUe8tIKpj/fZXaLwYe2LjzIWN4x3ki2FWolJOfXvZ8oomP3OVHTqA20rsQ5XLhfWeg9Wb4Ss+IafoF34pyuGTv4XXucXD7sZ+6CWcOWppMtBaJvz89lxFxjYff/MZpzQJc5jSw3J/d2uf27cqf3kWOcrnavpEoB6grXyYcWCb2fl1AA79YPwe3oROawZpcvTXK8eftbbTAzMbKTqcwZTwRDKVMYaGVvhaNObe0SzugdauF9lX012i9x0kVwlTnTTD6V2tf2ObuM+ZocwLY8mldekVTy59hrxNT3N9JD0SiB4brCQ+KCB9bbUpz3RvkP6NknFHHcz45CTaWjqR1BoczLx3tiJbkz+PvVytKt5tKaPWxdLZxt0fju2uTKHdc+IOgmrtL6rBwcZZQwpzCpR7vytd+8U3bidPbyB5xXA0Xq44unqgGbGMnSvqCHUCKgfucVfjfoxrdx9TnqA4EzxxBlNqPZbOuNd6LE9wxhgtdAyqY1/NTMZODhl/YB3/h5UrNbUGamqP+s083jBp/OOo8ihJHcSE98NqD7g8nG07OzWmFQkvgl+2ZkXCmZiZPTHmrcvPsDQ7NWSuy1DecyAgdBJhgYYKnD43ixW27FNgmoGo70iiqvzBHQhbuIC5FucpqSndmL3HCYJrrSHYgdqPhf+jtI///DUfnba8asZ545OmjnR/wpat900r2Jhl9jzsrO8cOpM3sGZyOP5tHQaXGFcAACAASURBVHFs60/4K4l8Mrq+n+hMmwdqXrfdo1/g0OYIzOV0BGBfdkViE5UmgrnVrrOauHjWKnOAWGTlc/uW6VI59I1SuezUhRl9jRNd53GolocZldcG8BowgxVDarsPOuDuYeNKq2lF/ZGe1Y5rC6A2GWxYWnuK9MbdO5rHPdC69SL7asLRMgvZf3gCPSM8QOVN9PsncXp7LVkXPAgaFUvY4x44Ucap3BI6+1s4YnmvsT09nBlaV1D5M+rDnwncm8zHOzO5ghvtn3mOoeEa2ivR0qX9a9lfo/9kAccWJHMq2RCMOPkPZ/EhLVmHd5K+0xA8OD3Um8d6aQkKduP4tHtJrpZFovDzXK70NQRTgXGfM0q1hk8+LzF8foSG9ipAX0a5ytF2E44mL+SjYTsY5e8Iag1xH/5Mz8PppB/YxdnzAN500Grw1zxBYIAHhZtbscz8fKHWsfkLjo/TEKiCtr2Wsnh3b7Zv26qURXEll0vHa0kEGvUE/lXOSEe8uw2i1vm5cwwTZ6pxQDNuDXs6piupxUv5P+NM2xhmH8621DUieQspwwINE3SpuzD+w/cIO3zEZDbkdmi0vgRqAgkM8OTc5qFEWjyWBew5fpFIr3ag8iZm80p8dhtmI66sj17n4rfna8kcWNeEoXDlTAE51Vup1K5oHnGjSrXLpfIMVLl4E2z68PPKRTKPm45gK2HF+gzCFofgjgNeETPI7J5NWuoR0j43lF/9UBeCH/EluEcgPndlNTLLUO2S3kxlaPdhBKhA3S2WlKM9OXTgCGkf5xlanDx9CdP4EdhDQ4DXeZtnqMtMPUFRhGHiTp+RSzjUKY0tH2ZVnFtQx/lV4+/ZDo22C737hqDxUJ44F2WwobaWmbydpH0TwfhuDqi6hSj7MsydUysz50TlfbrmBIc1zqu8nfzjmwimdHMAtxDm7nHgwXW7OEQXYkcNItTXGSghJw8CfOuuFC4/Agt6G7pHPfFnLKTKs7H2ASzsVsJH31/mqO5XaHUX2s6BTIjR4n0PcPM/ZGz6gn217OLo16e5HObJfTjiPTiOVK8DbD/yI6dMEljqfynl29spoWVvCFBaEC4ch/rmRp3QL5Cqf3kPvHsCG82vD7DnWAGLtBpUOKCJ+xtbVNtY+/lFvLppGTokBI1XXZmHskg8fJHgCOU6+/4CVG9vY88FVyJHDSPy8XaoKCcn9yIB/p7md2Hlc7vOCUPrvO6Xs+KTY8R2C0Kl8iOylzLHzzdHWFPbw4y8nWxI17JI6woqTyIXv0fwkAz2pGVx6LtSwJmAJ7vwsL+G4O7eqD6fR+BYy5Ne3rp0MnNHolGO66IDrgRvSiPlG9OWu3pMen13O4JDanvQWXMfah9PHm5fNeuJ6fWu+n3V3H008u2VzO16nZPZ2eRfOEfm58Z7dzs0zwTx5z4h+Ch1zPzDO2udBLSx945mcQ+0ar3Ivpo0GUHh5DFsetBYOfdnYMLbDKx4t4z8D19h2ZnhrErwsNCyU0D+2BjW70girpsrtHala8QEukZMqLZeGWdTX2PeZAsV5G/iWDbZjanLBhkG9Ks9CIqYQFCN/VioeCS/xvYhHxPX1RFUHvSMm0/POJP3L6SzbB08+7oW22Xo3MuR6Ndou3s+/Ts6QmtXOmsH0Vk7yOzaZ22dMlI3keStWjorrXJtu4Yzvmu1Lgy5iYyJiDO7OQBHCrgQ549pmFt8oY4ZEvJ2smF/CIv6toPWrgREDKocvDqyehnPk/3ROmLnVZuwiossil6G++5JRHZ0htau+GgjmKK1kNexjmN5KCGRNM0MwjwAJ0+CoycRHG26RgmHpo5ljMX01IYJJqNq+YycjWYuKtqRJC4LsdjK4jNkCVuGmLyQu40HI3ZVWUe3YxXjvZxJHKdB3RpUHhoi4zREmvuzFV23TYrcb3YRM8eNPbPD8HIC3HwJHeJL6JA6t7SN9ERW7O9iOMdwxitkEDNCqv7OdOm1VR5q/3vqf0xnUfQ75ueuqGBSCTK+VJxNSl1z59R2TrgFMeWDoCov1Tyvyln73DIC02YQ6g4qryBiFwaZdDsrIXPJLOY+MIO0+lQG/w7pYyHcAxwfg9Uu8KLlXM+2ofaj32g/+pl77+Z/OJr4dyb9UMc+/vO/rDnwMLP73A+tnPEMjmRytRru1c/W02tnLd3fmpmEGCquvccaEICuOVHA6qdNnzmXUVJXEsB3Eknqv9JQiVJ5EhwXT3C1a0xRxhaO/WEEYRa6jh2aPI/EB5V9qH2JSpht8hszzMAecyaCzARPCy07Vj63zfyeqqrrug9szODYxCCC1cqM9vWaCLiclLGz+MO2BYx/3BVwxv3xMGIfDzPbPbTI5umjy1mxYCehm4cR4AS4dSHy5S7VunjVPYWCOuQFttQ2F7SZfYROm8MKi61wNa/DZu+jKmfUXp4EexmCohgLVZaijHeYPqeObsONvXc0i3ugdetF9tTEvYv3ciR6DGv35VJorCHdKOPKuWySJz/JooQ1UPxLzUk0q+0ja8hjTJq+lSP5JVwznV1dX8LZ43tZG/uk5SDHaP8QloXEsGxHJvlFZZRX2U8ZhfmZ7J73Yo3WHIN0sgYO4a19uRSaFLZcd4Gs5ImMC/kTp5oi1ZtuObv7PMz0ebsMx8K01nmjjGvFFzievpW3Yh/jrSW2L86VhQ8TPzmRg3nVylJfW15kwZZcSpQfTMlXa3hxeN0pwHXFpZUVbn0p+mvKv+plUHuiGbmAtLVmBvjpspnSZywj5qWSmX+x6rY3ytEXnycnfReLYkcTWdex1GUzIXwyc3dkc6749ssalv3mIgJ7zSMx/UTN8l8rpSg/iz1vLiIs7B3qaE9oNN2OREJDJjN3Rxb5RaXoq/w+S9GdO8Gh5FWMCWmK+YbKSRk/mRHzUsk+V1K1LI2kv1bCueMZJE4fS3Cfd0iqz7wMGzM4ZlLjKfoytWkaRHTZjBk4j6SvzqMzfvcb5RTlpbMiZgIj1l8k/1r9L3jLDyoLKhg8x+qlteAyCX97h5U7P+PbH/7D9V9M78q/cr3kPKc+203C9I08f8LCZKLVfLRnI8+v3se35y9z/fb7mVf1KMQ+oSz/G148WOvaVU2ZxfKDBZT9CvxaRkHqLKLrzPNzkUURyjVSZ3Lw9KUU5WWQOHk0wc+mcq7WysBFFkW/yop9eRRV1CfK0Z3LJmnyWMIS8tAVl9f+MMbK5/atyyLxc5OWj3pPBHyRFcPGEjx5C4eOn0d3zfSELEd/7SL5GWmsmD6WsPG2bM1RfLOLyL7zSEzPo+ja7fXjOJmZRXbeeXTXSmte66+VcO6rVBbFjib42fR6TFTb+HtHs7gHWrNeZEe/A36zdyGEaCz1i7PJfLkLKkCfu42YiF01Lz5qV6LGjWNKnMbQl1V/ghUPzzMzJ4EQzZg6hC2HJhGsBvQnWBs8z7bjc2zowBegdQP0sHUURP/b3iW6sy3bBvGPGpb3jof+DQl0hBCiGWtB+WLEnceBCWFdlG4JBaREmwlyAHQlpCxZxJ5c5f+qu5VkFULcPiIXjzQEOcC5/Vtu2yAHYMy7UAaggkFzoe48XcJWtFNhghLklHwqQY4QomWRQEfcxvzwqu8gKHUIAcYxqdeKsZDQVIhmyT16EjP6Kn3PizNYM6euQRDNW8EmmKVUqB07Q/LaZjqvTkv3KKyOUebOuQQLJtq7QEIIYV1NmoxACOs6QebpUsLcnQFvovbEw6Y0tu87UZFJRe3jSfBTWiaMjyDA+DT8wC4S7VZmIerm3tWbB9sALp6E/WUwUSHGAdUlHFqyro7EBbeH5ePBfzfEdgbX3vDJdAhYbO9S3UEehS9Wg78K0EPii7XmtxRCiNuSjNERtze1hjV7lQxndSrl3L53iJqYVXtaSyHsbEbqdmL9q72oP8+eOa8yZcftNbi3Vi5wYC9o2wI3IDEcxpy1d6HuDBv2KBOE3oD02dBnV52bCCHEbUcCHdECOBM6ehCxw4IIbO+Gyslk9qIb5eh1F8nPTmfLkn+SYnGuEyGaD9NAR198nvzsdDbMTmVPfbKz3W484MDfgbelst2k5LgLIe4AEugIIYQQQgghWhxJRiCEEEIIIYRocSTQEUIIIYQQQrQ4EugIIYQQQgghWhwJdIQQQgghhBAtjgQ6QgghhBBCiBZHAh0hhBBCCCFEiyOBjhBCCCGEEKLFkUBHCCGEEEII0eJIoCOEEEIIIYRocSTQEUIIIYQQQrQ4EugIIYQQQgghWhwJdIQQQgghhBAtTrMKdMKnQ3EKDHexd0mEMKF6hY9G7GSOc1OcmN2Y3j+Lj/yCUDfBpwkhhBBCtFS/A36zdyHAEOTsHAWOQMlBcBtfy8rBAzk2zM+w/PNnJLz+BfuAyeOnM0J5+epn6+m187KNSuvH1rcG0tnse6fZ8tJuVjZwj9qQvkx+2g/H/2SxOel/2aK79VLWpd/gOBY+dR+NLbOR+eNueowuk7F8PZPOWqPUTUz1Ch89O5qAezCca5tfIMWGHxfV/TMWPtkW0JPz8WgGnPnGhp92p3Ghx/2vMrlXXwLcXVA5AOTy/puDWWzvogkhhBDC6ppFi473IEhWgpyy72HWtAZsfBP0yqLulzIblK4J3P9HZkQF4unqzH1+WiYM7mjvEjXa9fIbylIZ1/W1rtr8tRrM+iFKkPPL96R89IpNgxyAlK/f4nARgIqA8FWsv0+aN63Dhajun7D5r4PR/D9jkCOEEEKIluwuexeAR+GT2eAKcAlmDYM1V+vYpvAyVwEXgMuXSVde/klXiiFcAl3JFRsVGOA0w1+q+gzYtFWjwdS/526T/959l/3/LA1RUFQCfq4AFBWVKK/+F10poAIo4VKRnQrXaN2Y3m8WvdyBm5c4vOOvJOjqOjGt4OZO4nZ0UlqR2tJryAdM/2Awi2/3oNHefr+Al59sa1guySX5k1msLcrltjsthRBCCFFvdm/R2TAX/FWG5fSlsLw+dcmbv9a5ytVrda/TbHz3Bdu/vgw3AV0++/6Vb+8SNYj+5o061viVq780SVGsRvPga0Q/ZDgxizL/RtzlJghyjPRLGbnjM4puAvf4E/30LDRN9+ktUl9/De4AXGL/jsG8LkGOEEII0eLZtenAexxEKwNdSj6FPnsavo/rJt3VTpWUAPdZp3BNqow1m9ezZrO9y3GryrheEdBc4ZIOuNeOxWmsVs8zvY+/oTGq6F8sPvpxkxdBd/kV3jz6KQuDXFA9OJg5nbYy4Pvvm7wcLUVgO6U156cvSfqvfcsihBBCiKZh1xadDSOUjmZXYc3MBmx49jLnlUW9rrLWUlDRilPCpULrlFHUbd9Pl5SlUnQ/G1/9lavG7lYllylo+mI1WkT359DcA3CVL9NnkWqXUlwlJet9sn8BUBEQ8ioRdilHY7jgELqTp2f9DWe7txlXU1rEl/YugxBCCCGahN1adLwngdbNsFzwMcyyas+gG4ZuYPVwn6cfc8L/yKMP3Y+LSjkc5aVcvXiaAx9/zpqcUmyRu60y41lNjckYZ5Pv0eo+ViXEEaI8DL+csZFhKf9p+H5u/sptM8Sk1UvEBCoJAL5P5fXChp6YGjpMW8rQAU/g4+6Iccz7taJcsj5ay/Ylayiv765uvsvarMGsD/WCe4OIecCF1B+asAtdY3VeRZ8Yf9T48z9LvDiy5HkuXroNyi2EEEKIFsVugU5Cb2VBD3sbnNe4ZjIAADJ3E5hZz120cmZCzHBiHzMTbDg44+IZyIDnO9K2uadFttX3aHUfCyePqF+QY+G4r1y7uNEpq+1F3ekpNCoAPdnfvkWDRkup4xm4Zz79vRxrvOXk7k/vuLfpHTGQZUP+xKkL9dvl4ZOfkf/UcHxaqdA88hI+PyxoWJns4dQkDiS+S+jobri5dSP0jU/495pJnP63pMoWQgghRNOxT6DjAk8YJ6EpqGcCAqtyZPILcYzwUyqkNy9TkPE5H335I6d+ARcPD/o8EsgfH/+9zUqQsXcLzx9sXfmCVxDLYv9Iw5IJ2+h7tHJl9sQR9Otg2G+jW3JuOy6M9/M3LN78nuyzDTkxw+mZbAxySjievJwP1i3kygVw6JpAyLx4oru6goeWl95PYnp4DPXKC1j+Fofzh+PzEPCAhqhWsLierZX2c5XyzOH86+x8ur8yGO/ft+XRiRu5b+9Svti11d6FE0IIIcQdwj6BziDwVhYLjtPk4ze8g/vxF2NwcOl/WflWetUJOn/OJz0nH7bfZbPUBld/KeOoaSay3zd8DiDbfA9HJr/wLAM6KUFO1hbi74ggB2AIAe2VxbM5pDQgoHB6/W1G+TsCZRxZ+BibNlae1eXHF3Jw4FbOJn7NjF6uOPgOYkA0bEquz56vkvLDOZ57yAtadSLgfsBW489adcLhXvcGbXLzahY3LPVLPP8aR6flcumVV+j+gAqv8Fn07+TPgRWvUdakwZoLqt815ecJIYQQojmwS6Cj9THOdgMFTd6bxZkJvf0M89bcPM++96oFB6Zu/tqMK/i2+B6OTB7/QkUL0eWsLcRvPc+3VinvbcChE15K45fuP980oIvYcMJ6KaF7/i5SNpoL3QvIX5JOfq9B+ODIY/3msyn5tXrtPf/n8+jxQoUKr/uDoDCr3iVrkA6v8tSspxoU3J/ZHMCxz2pZQb+VggU56F54l9DHXXDuPJj+87xIXzqaYltOdVXFEHw8DEu6S7lN9aFCCCGEsDO75ETStK1cLjnexB9+rx9+9xsWr5/4gsX/aeLPtxarfw9HJox+9s4NcgBc3FErizpddv238x1EZy/DYmHOXq5ZWi8vk7PFhkWnNh7137+uqGLOF7WqYS0uzcM3XH7nT3yy43tKb0JrjyCenr8f785t6970lrjgc89g5oS9QI/fAzfPcfhk06cKF0IIIYR92KVFx9+krlb8XRN/uI8Xnspi0Q8/ctvmgrLq93Ck8/C/0r2bK3CHBjkAriaBjr4Bc9Y84oqxyt4+IokNEUl1b+PhTQegXvkhSoswNtapXDxrXfWW/PACB8bYaudXKfvnM3zyw1s8Mf5pvJy86D7lX7Td9SpH//kvK3/WM6wf+Td6mc7hdPl7Uv75LAkyh44QQghxx7DPLBf2nKb0rsoEAFcr5t25DVn1e5ShNxln4eJquyQMzVpjfw1+7WnT0G10JVyqe62W56qOcnskU3CAdo4+FYGsEEIIIVo+u4QcuYWAknXN7SGgqVt1RA0FO/9Owf2G8Tl3+w1k+eD1DNp5+fZt8WqMn4vQ4Y8aUKs6AfVs1fmphGuAE3Bqsw/L5lk5vYaDuqKCrr96vtZVmy8XHIKVlNOtgGvnOLp2OAWnbBHufUzc5o8BF3zUw5n+9Av0+kMneg1exerkIEYW1bkDIYQQQrQAdgl0Ck0GMbh2pWkDnUJD5d0F6OTtCZm3acXR6t+jjJXvbMFbmSD0vqdGs6t8I4P23EHBjl6HDgyBjlpDvQOdC79UBDrtOw4Cllu3XGqTLnX/zbHuvk098A59rJ2MAIBuuI1chfaptrQGblzIaqJkBFfJ171L3G5HPnz+eTQqFzSPPg+fvmvrDxZCCCFEM2CXrmtbTdJZeXdr4g8/+x/OK11n7vb3Y4R9Ou/dOlt8j5uXmfTWbk79AnAX9/UZwbvBNSe/tCXvvy5g55Ecco7sJCGiST8aSvMpUrrwqe/vhk99t9uXzVlluzaaQXS2cv8oH49OSqCj59zPDRg71ByohuM9ayNPK0FO6amdfDK7KTOuATffJ+f/lOKopPOaEEIIcaewz2iZJMidBP6Ad1fDnDpNNpfOzdMc+LaMzt0cQf1HJrxwgVPv5HDU3LiBVndxH79yuTlO0Gir76E7zfPvfMaul57ivlaOdB76V969+neeP9HweX4aLp4NaxPQugL4s+DxY7h1DWTqmSb4aAC2kn32JTQPAR0CGjA55yukH51AYIgjqIOJe/9t5g2ZaHlCUA8NDheyKa9XmVyIekBJ6abPJdNWc+gAnP0bn03f2KBNbtbW3OdpnDAUQM85u00YehX9b3b4WCGEEELYlX0CnauQ/T34dwI6w4KHILoJu68l7txHH7+BdL4H7vaL5N3XH+PbrM/46ItLnAdcPDzo80ggf3z89+Su2sikaqmxXO5xpPM9rau+5mBcuguXe53pbvLe1dJSTlWZVPEuOt+rwsX0JVeTlhPV7+l+r0lgcVPPqZJfa3Qhu9XvYcnVH75g0Fsowc79dI/9K6ve2sikH+q3feP5097V5L+OGga9oWXq0HRbf7DiKinff89zD3WCVv708uvE4tz6taCcejOZU91j6ayCNt0msPyoloMH0vny40xDwOMZTFeNP4/0CKSzVyFbH3yYI/XZcavn0HQwLOrPZFGvOUYb6+b3lF+yRotRtfE4Ny/x7zWTOP3vJp80SwghhBB3MLvlP5uVBsPHGZa144HJTfjhutM8/9Y+PpjYD29nQO3JI0//lUeerr6i+Wk2Q8JHsPApSyMZfBgwZyIDTF45tW0xwzOrrjN7zkBjPoYaXIL+yrtBJi/8/BkJr3/BPit/j9pc/eEL4rffz3vD/Li71f2EvDCQyW/sZqWlSUmtYitfnIjGv0tl0OfWVgM0VaAD+af/RXbo82hU4NPtJXrlvsTh+mz4TRzL5rRn9uxwOjgBbv70HuJP7yETzKxcyPV6lsfH72k0KgA9Od+9j00Pv7V0XkWf2G6ogRvF33BkyfNcvHTHjPQSQgghRDNhtxEqBasgU6n7ePSGZS61r29tVwv/zeBZb7P44/+l4D+lXDftoqQv5fIP/8tHq7eSUM9WEHux5ff4NnM3iz9TZiK9x48RMwcy2aZDHNIZM3AN2U3RS86Sm2+x54RyYt7/FOM7NODE3PEM80JiWLYjk/yiMspvmLynL+PKuVwOJi9kesjDZNVnf61GMye4k2H5P5+x9ofbJFg4NYkDSbkU//Ax/5w2XIIcIYQQQtjF7wC79V7XTocDowzLJZ9B4PNNOFZHNFsbcn8jVmnuyt3YiYDnmviscHiFj8aMJkCFoTUt6QVS7DBOq1e3/awP9QL0ZO96ir+clYChsab3z+G5h4DvNuL7yVJ7F0cIIYQQTcCuOcfSF8MupaXB9SnYMMiepRHNwoMLCFDG3vNrNulv2CH0LV/K65+dMyzf+xQvdx/c9BNN3vsWbzxlOBD63K3MlCDHOly96GvvMgghhBCiSdg9ufLgVyFXGaivnQ0bHrVveYSdPKgl9o2d5BxNIPj3AGXkbpnFi02Wca2q7JOv8v53hhPTPXgWmx9swjzorQazvt/TuLcCfsklOX0p+XVuJGqT/7MSKLpriPy9fcsihBBCiKZh90CHf0P/eVACoILY1RDfxON1hH3Fpxfz23cH2DBjEP6uAGUUpEyl/3N77Viqb1i8bwGHiwBUBISvYv19TXBitnqahc/Mopc7cPMSh3c8y+L65aEWtUg5k6MkcmhL3yE7mePuj7udyySEEEII27J/oAMU7ILoTVAG0BZmvWHvEgl7KPtvCbkHE5mqDaDT0DX2H691cydxOzaS8wvQqi29whcQZeOPjApaQFQnFdzUk7N3EnGXpcuaVRRNYknmJcOyqz/R0Tv5/OUc8l7eyXT7lkwIIYQQNmLXZATVDU+ANd0gOgrs+SxfCFNq51lsHqThy+2DWayve/1b0iqIOU8vRZM/iQFnZN4Z63Khx/2vMrlXXwLcXVA5AOTy/puDWWzvogkhhBDC6ppVoCOEEEIIIYQQ1tAsuq4JIYQQQgghhDVJoCOEEEIIIYRocSTQEUIIIYQQQrQ4EugIIYQQQgghWpwmCXR+++03fvvtN/z9/Zvi44QQQgghhBB3OGnREUIIIYQQQrQ4EugIIYQQQgghWhwJdIQQQgghhBAtjgQ6QgghhBBCiBZHAh0hhBBCCCFEiyOBjhBCCCGEEKLFkUBHCCGEEEII0eJIoCPEnaLruzz7r28J7v6AvUsihBDW4TKZyH1niYzqZu+SCCGaobvsXQBxe+vw3s/M1rqafe9S+itMH7u8iUvUODNStxNrYT7bnI1DiVzYtOWxuq7vMmb9aHzuBr8l73JeG8ZZe5dJ3KG8aT97B3ER/jgUpbN95jMc/8beZRK3px48/t4Sgu8HZuwH/R/Zs+cHexdKCNGMSIuOEC2dy2QiVxiCHK7/wN75z98mQU4sXRd/ykuHfmbd7vX2Lsxtr+3oHUTv/onlp0/S054F0b7N+JEaOrg50t43nPGzltqzNOK29iVfvbGR/OsArgTP3MPjXe1dJiFEcyItOuKWnB17L2NMXxjwKYuXaWlrrwI10qKIoSwyfSFhAWdG+9qrOFbUj8ffe53g+wBKyHyjL0cO3i5PPHsQNkRLZ4Cr9i7L7c9/0CB6+wMU27cg7d1wMvmvQ2vzLcKipsoW9Fw2PfgwRyyuGU/00aX0dgNyExkTEWd4OeEkG0ZbaLquRZXWedN96LNZ+/BjHDOzTecPrjE1xNHwn+J05nX/U9UHLCb3iltq/T/+PBveeIBX5/bG7e7ODF6RxsVBYZyVa4YQAmnREaJFc4lfQn8/Q2Wj+OAi6dYh7C95Idu/KqEcQFfAJ8lv2LtEogHatnWr/I9KQ4+Xvc2slUDQI46V/3VrT3tbFmpPGOuST1EGcF9vhr0x2ZafJoS4jUiLjhAtlcsS/hzVGUeAywdJil9p7xIJAewla9i9ZNm7GHeixFeYfrhmC1rQa0kM9AGKM1k7eU2Nrq3lhZkVy07OhgCmXA8OKugaMgXenFh1gxcH0UNd9aW7rVD82lxdPo39Qf8g8kFwe3IG4f1XsvcTG3+oEKLZk0BHiBbq/80fzcN3A5Tx1QfP85O9CySEsK8Le7l0oebLuutJytIvXMrYyqV67OrK97ng70/bblp6quGIzviON0GhGhyA/B8L8OlorsXHFvaRuXofPd7sRztcCY55l/RPnje08ggh7lh3fKDjNo4IPQAAIABJREFUELGeoc/1J9DXgzYq5cUbZVwpzCV901r2b0w0dLEwxyOWwIQpPNPDmw5ulc3014oK+Hr/WlKWL+eazsx2FX2TSzg49V6SP9LQ4fUNPBuhoYPyFKz8Wgn5hxNZP/EVrtT6DbxxGjKfqLhwHvNyxUlV+U75tTLKSwtJW+3DJ8m17MInnt6vjUcb6E17Y+f5G2VcKSwgY8cKPl5dyzGwGg0dpi1l6IAn8HF3xEF59VpRLlkfrWX7kjVNUAYr8PBmfMIIhvbww8vN+C3K0Red49j+bcxdnk2+uXOigjOR02KZMECD173OqFrXsmpxBlO6r2KPufdc3kLbQ3ly+8NHfJLcwC5r6uF0nhnP0D7+lee28Xfx/nI+2by1Yfurl/VMPRNrGJNTnX8sG87EmnnD+Buq+Y5Dr/mERIfTo6s/7dWOlb+NG2Vc+7mgzvOqZ+pNRvlTOcbBeEz6Vv5OrxXlsvuNGA6mZlv+Wj3m0//lWLQBHrRxsrwawKmNrVhmLsOfcR9dTa5T+hLOHk9n+5uvcOrLAsvlr8GfUWduMsrMO7bKlHjL2RkrxoUoY1PUwwlcmMBArT/tleNRXnyBY6kLWT9vjZkdVI5ZMX6eQ0QSz8aHE+jlarje3CijML+eWeAa8fcwqDzHK/7Wxn1pPGjTWilHzi7Wj4vhrJmgxN4cjNekwmxyPf3pqfYnJF7LkTnphtfVM+nZDaCAr1Mv0P5Fb5xw5B5fIM/GhfvsJfYf701MV0fu8uvHU0/B/s/qv3n4qmMkj9PgShkF+2bRJ3I5lv6SQojbw507Rkc9nKBtP7NuZSy9TW9WAK0daeOlYWDCUoYOsLD9kI+ZfWA94/v5VwlyAJzcvekZvZRVh74mqK7U/s4JRGd8zezoysoTgIOTK537xTN/93os143CCdrxNasWD6enT9Ugx7APR5zcvfGvZdqUNi9/zfK0pUSHmAQ5oBwDf/q/vJ7lhz7GR21xF7dOHc/AQ58zO05LZ5MgB8DJ3Z/ecW+zLuNTOnvYsAxWoB4Sy6EDS5jSr4tJkAPggMrdm+DoGaQdms0US+eE2pdFae+xIi4EH/c6gpy6jO2ttObAyX/NbthTzW5vM/5QElOHaKqe28bfxewkVu1Ooq0tz4lbtp6XEhOI1mrwcXes+tto7VhxXi1PXU+b+uzO9JiYfG8nd3+iV37OS9O0ZjdrE/c5i5MSGPh43UGOJW1e/prlxn2Yfg+VKx0eH8TUpJO8NHt443Z+G7qrRxIvZSQxvl9lkAPg4OZB0Mi3Wbw2vo49ONL5vZ9Yt3I4QcYgB6C1IQvcS8knCaolD4k1/x5V9mX8vbd2pH3X4czeX3s57OX/tTMGrNlk5RiuLD49nqu4TznFKwlEfswm44dfuAaAG+4BTVG6Hzj58TdK7hIPHh82o/6bPp3M6okaXO8C7nLEO2IBya/ZppRCiKZzh7bohNMzeQOj/I1Pqks4dXgvabv3UngVnB7qzWO9tAQFu5nffMCnLF5szCxWRuFXe9m+aReFV6FNt+E8Myqcrm6AWkPcuk+5FPYnC0/xXQmaOd9QCdNf4MiORA7+KxeHJycQPTKYDipw6hpNVHQcm8y0yDi9/jZx3Qw3nWsXsjmYupevP8813Fg8g+nq500HjT+/6s1/DadpJ5kf52+4Qd0o4dThnezefJAruNH+6eEMHBhMBydw8grnpeT1vBYRV0frUmOE0zN5Pv29HIESjicv54N1C7lyARy6JhAyL57orq7goeWl95OYHh5jgzJYwYAXSFusxR2AUoq+SmfDpgxyroJXNy0jRoUR4AaouzB+3ST+L2wVKVXOCQeiVk4lysdQ7dLnpTJ32i5Sjpei9tEwZdkkYro6G1b9MZWoPluw3IbwAI8/bmwXOcWppAa05qjjiV43gUA1oL/AwXWvsXtzItd03jj1ncLAabH07uj4/9u7+7go6/zf46+9cWFphdGDLWyEcTCX8aYVrUeSuAbduKJ2Eqn1J25liOfn3ZahZzXTypvUX1LbpnZKLS3ht5VgJxV/stvQJi76yAV/omAmUa4FK7TcuBFkxvljroEBZwYGB4Hh/Xw85vG4Zri+13yZ65prvp/vLX7Dp7Po+QKWJHmy9n8zWx7KsQt040neHk84QEkmS1ZlOkhTT91x50esOVfM8YICPjmeR/HHVdD62jYnsej5wyxfuM35QfxuY1GamQgfoK6Ug2mvsu9QNcFTHyN5srW2evivVxGx3sIp+3QjdpL8aJT1PnGpnIMvLuft17dRVxtJ4PxnmTsnllAf6/9wcM1QdrzmoO444c8snR9JAFB3zsL2Z54hP9sC/rEEP/A4ybNjCfXzZfgDG0ksyiNtV/MxDj8+g2K7KK5pHAal7H5oucMxMvZjMTzp7PpZLHndLmgeNo+li6LaF2S2EMaUbWbrPbO2mH2vpnPwWDXBk+byUIKZACDw7rncPTiVbCetBwFjlrHIxxeo52xuJrvfzKLMP4aJcxIZG+ILPmbuf3wZRx5y0LR2BeejNb/RJ1lltt5/6z7L4+1XNlFca2bsoylMDPcFPxf56CZO7S+gZnQUAeFRRA+G7NPTGT/O2lWtJHczdTx+9TP19m5OzBlNlAn6RtzOz1jbvm67w4Jo+Yvvi+lq9boTkU7TKwMdv2XPMt0W5FTk8cKcMS27KuSmc/Y12O0f2aJ1wSqOuxfYgpxqcp68g7S05iJnZW46L2yMY+yeXdZAakAs96fEstbWrN86Lz4O8pCbzsqGv/HS/Ej64It5zDxIa90dI5boaOMuXFfAlrhRFLYoOKeT4+pD8F/Ffb82gpyGYtKSJpFj192iMncThakpJB54lpgB4GdO5F4nAdeV8Hv6RSPgrOfgmlEtCnsXC9eQMyWds9v+xtJxJvoMjufeRDyehyt3LWsX2IKcat5/ciGz0r5q/nPuNt7euIele54nydwHBkQzK+V13n6yunkf/8n8ZpxRU/rZHmbENQcytSUFPDXld5D1PDMG94GBt/Kb6DcoyHWWn5kMvN7Y/PspTrgxzWrEH1YRMwCglLcSw8lu+l6UUpe9gLTs/XyRtZfEwRA4znWB0n0F1OTah28xzd3KvqmiMted7nKbeSE6mYsOuv5U5m6icPdOFqVNJ8IHgiOnEMg25+MSBpqJAOpKMll7XwJltbbjZLFlwEkeGe0L/mZumgCn9jcnC50bZw2OqOfgujF213YBlRvvZGW5rcLEl9ET57LjtcWt3ngZDz5u3Gs+y2T5HQnNQX6thbKNFlbm2v4PEzHJq9i9a4ZRgw4XC1uOtWgeh1FPbTvHYXhMSSaVJXbPAx/uYFdUa+vc5ediExuu+YJVE4KAMMxTIHu94yP08bFWqhxcP4MdW7KMV9PZsb+ea/LmMdIHAn4eQzBrKGuR8srOR2uhZjNQT8mbi1m7rPn+vvuQL4G5Kdzq5ywf1s/BP3q6i2n8g67Oj3taFsdTohjrH8aoB2PJ3j+dkSEAxeSmWiC2CwIdnufkx08TdYsvmMIIHwRfnGlPsizyH48l1vah1hfz1//szHyKyNXQC7uuJTF+gtkIYMrZt2yM8/7YtQVcbN0Sc+9jxA60btYc3tQiyGmWxcGUTGy/6+HjHnP+g9RQzI7WgRbA7/Ob0gde76ivkxlTB7vCALAgnrFGF5ySdxa3CHKa1KaStjHP+DH3ZfQUTy/s11z7R0kmbzuq0aaUkvUW47PwZdSEVR7OgwfcO43xxjVRe/h1HrMPcpqcZ23KHrtrYipR9n+ODSHE2Dx3eI+D1przPHXI9vlcy6AxLvIzyMy1xrVx4WyeG93WniX2FmsFQE3uq3ZBjr0sct7OMwpv1sJN91TgMMhpcmwGRz4xtq/xddE91FBh4QW7grVVKYWFtnNiInRkyyQDg43Ata6AI46u7V37KTSWtOlzXeTl0+82zVxVz8FXExy3ZB6bwd4C4wwbtepez+G5gLL3ipqCt+BwV93X6jn1mn2QY6hdQKHtmhgQzKDWyTrhfFRalrcIcqz5WMxx243CUT4ACGPK9p2sc/pIYayTDglXZh7BLX7M1pB9yPpFCx/zGBFTRxIMXDxmsZucAMBE8NDOyI9jn//d9uW/gYEx7U2Vyh0T5rMtp4Di3EzWPDyRWX/qpAyKyFXT+wKd6CmMNMZ6XDyWwW7HDS1OBY4b0tSak/+Oiw68p5dz2FbTHRKGsyXaTr05iYMOC5SnKHO5rt8mjn9k/KD6RZL87iHGJrS/0Dky0pajUg6vz3K+Y1om+bbC2MBIQtv9Du0wOJ4Io3RfVpTltOaT03mcNfLgF9D9BupEjRuMNWasJv+dXJzONXA6gzy7a+L2Dr/jRRocxVI2Pw+gr7FZ9Y+2RlXbmXmb0QIBJUdddJfJKG2afjZgQGT7j99TNZSSNsdJ99OPyjzTMtJQf1kLR8Roo0KmoZhCF62Yp07b6vuv1jiIrlRNTqqTc/FOafvOxelMNqxxfM/7rKza4evg+fNx8XQ6a51MwlBW4TwfXcuXPq2aisp251tbnEJiSR5nvT8Xvm9MN11U3SVdjev/Uc23xravO2MJj25iVuxIhoydyhP/qWkIRLxB7+u6Niasqeb07Ee73U4eer2toF3G2V2u9iyl5Fw1DDYBwQRPAPY72O1Sx2+mp367nBxb17KQKB5c92cefLqakg//yoG9z5G/y1kUN52Btlq5qtI2ZgFL5Wz5s9CPpkXfWq+x0GE3mZpauoIn72Tr5J0udwcgKIxQT+bBAyKvt1WdnqfE5TVxkfxz1cwYbAKuJcT+mrCc4xwwBAgZPZlIWo/BuZanxtg6jJ/nTLaLtxkU3NTX/OLXLjswtnR9UFPLxshHv2Pro20nCQx2OEdaN2GdyW/KhJGED7h8so52qyulxFm8+M6dLHEw4xsYhWazCfwiuXVmGKdat+okTLCO5QPqzhW0KqSHEdzf6F7rE8ncM9+1I6NGrbmT/HiNb9vexaVLX3cgkefPR825AqdBwNnZ/Znl8tjG7HNO/948y1yn+daoaLOkk38ujokhvgT4A7V5WDYa+5yu6prZMr+o4gLWn62+/2Ma8MeuyIWIdAO9r0XHLrS7WOdmcw5wTQcLS306WshypTaVtPEz2GwppeaS8ZqPifDoOOau+zNb878gecU8BwmD8bumY2/p0UXffh7s/mDk2uqrO7agHQJ8Lh/J1R4+9tdE7R7+32GjmWbgZLbtnsZ9xuQD/uGRPLV7vXV8DtBw7L9Y62pcTAerL0JD3C8V1dV0w/lvAfxTuD/3b6xIjmV4yBUEOVfg7ObmLpdjFx0icX4Sfv4AkQTO/zMrnraN9Ssn59XWrcPx/GyAu+9YT4UWS+okOh9WJn5ofJcqP7d1uUvnwF+ag/ia41ktJ+UwBAT2npkBRaT76H0tOl2inrrOKp3XppM/O518/1jCH3iM6Mm3MfoGk3WtA3/rdKvhIb6eWRujoR5XPabc9kU1dYAfcOr1cDas7E1dBb6htsU1cZH80+dpGB2GD+A/PJ61u+NZ2zpZuYWnHj7gvHscwKkyqoigH9DnxzHgelqKJpUVVYAJqCZnSX/SXLZOdWex3LpjFXcbja81hZlsf2kzhdktKzacrzPjIZ/kcbYqnvB+gE8QMY9uIebRLa12qqfwtVkOutAWUFGLtUq6ysLaW+6kpPUuchXpfFgFMcDBgLa6tDxKEsMIp5zc1x13e+1zzWWj0DqP6cf82Ni88KVac0R6s97XovNRWVN3gVCz+wPbm/twBxOa4GrPMMJDjMHIDWV85nSGLA+ptVCycRI7xvdnzi13snZLAWVGK09gbApTou13Tm1eiK5fWBtr5KQQauutV1Hm2S5j5V83jcsJHhjvySNfVSebrolrCXd5TfRhZNM1cZ4z9teE/3ge/7U1yKkoPELRuWoabK10XKSh4jTvb1lJVPT/bTUttQNfNo/36PfTthZyalZXa5u2wETwkB48r+rgucQON7oZfZbJyikJlwU5V0Pw0ynWrkMNpRzJLaXMfhBaQzVnj2ayYcZQXnA4XsRCje089wtrsXaPdAWdD5dOz2DtoO8za9DP3B732imuC8J6B6inqps2OovI1dH7Ap3s0qapOv2GxBLh5g/W2eOlRiHSxMhJy5zvOOJZRttm3Pkkn3y3M3oFai2UrB/F2qY1HIIIH9dyl+Iztrt/GKNTXExiMDOekUaPpsrTOZ7tNra/gLPGGj8BkfFunwvHwpj+3D6KKr7m64oi9v1HnCcO6tK7x89h/TdMjJx0q/MdR0zj9qZr4gT2I5LCf/crIn2AhhO8MSWVe26fzdCf38+gQfczaFAiQ6OeYNb6E1S0J0OHT1HxjXWzb2gUvq73bnao+bsRMe7ZDqxx4sCg6WzIKqLqwtdUFe9jw2T3kjf17//Bj13t1tIQU1PeK0vynIyDiMP/SmYtbNMq7r7DWkNQlr2cLQ+Fs/ym7zNrkPEY2p+V0xI45Wi2Q0PJp3bf0d9d+XX8TdPYFl9+eAXftcgFaeT/vYqvq8rIf30ePTgkdounz0fvUE6F01lmOk94uK12rpzzjhaMcmbyMjIOFlF0MIPV/9ZbrmwR79b7Ap3aZ7AcM2qu/aOYm+ZihXf/SPq0/tvGTA4bNXsB0SkkJji4GfpPJ2ZVnHWhQ+o5mPmMR7Lurj52hcO6VqW9ypcszVMdJ7zIWEcV/0HLSJxtW9SvFMtmTy4OCbAYy4fN5yL51RddF66DHK1r1MrCrWxaGIc50BffQDNxi7exb6ZncuvUxgPkG9eEf3QSWxMc5NL/Op5a9StjCumvyMvc06L72dABzYOm3JolyKGXOGUrP18fwbC+LndulvscB20XxcA4Hnm+jRXmg9qecS3llU2kTDBj+okvpog4Ul7ZR1I7swM5nD1ny08UMe1vnGoS0P+Gy18MWsaU93YxZaD7x2s/uy4+P3QjSLPT4jt671amOLrXNAmjT5Drgpl9QX3Uox0sqN+1lbTnphMZYsLXFETkbzaQ8VzvKBB6+nz0SPeGuVi7x5HqpgWrr97EJQsZeqNRvfNFMSfas4YOAEnse2U18dFmzNHxLHt1H1vv6qw8isjV0gvH6JSSvzqNU2lJRPiAn3k6696P5chfMrBkWGt//W6MYdS4WG6N6kfh7/qT1mLWnDW8kzGdUTPN+GEiZt1JwicZq2tfgIAxDzMlIZYI22xKhWlO1oe5UluYe3wqAUX5HC8qp+yjLM5+bv2L340xjBo/kZibjVot+1lwbE4v5y1LHEtjTeBj5sE3/8nIrDT2ZuRRQz+CJz3M/XGRBBuFtcrszQ7WVYkkINrcMvgI+nHT8z4/CiIw2m4Aan05lUdb9ms49fs0Tt1iPRcBI+aR+mEsOe9ZOLzXqIm/LorhkWZuGj2SiJAy0l3ONATzJozE1OKVIMLGAq+5SORvIvKmfi1bPvo2/1c+fcOIsu/6V3OevEL70UpHeC7jNDtnDsYHE7eve4X3Jx3gjTePUHQBQsZMZlZCtHWsBtBQmMlTr7Wci+hkmTE+xmcYc99bQcie09ZAqOEceYc+N4Kibzh//PM2ZskD+JQTxz9l6s9vACK4ZX4MR9e2Z5yOhewtFmKNRSxDJz/LH26ZTs6eLP52qNg6nurGGMJvGsLo0ZGE//CvrLzlThfdGecRN7zl2SAojChgWztyA+kcLtzAxJAg8Akj8fUSQnenk/OnYrupyOupO55Jnf1n8k4BJWtiCfSBPiOSWLHdl7StOdRcF8XYKVOJjgwi4AftysAV+JSKWojwh+AJL7Ji+wQOfmIN6mvsvqvUFFNZ6GgtLlp9R4OYuO4kIxMsZB/YT/HHVUA/gsdEMcgcxchbwuhzaLHLsXiVe/IpmxxHMBDxwC5W/M/m+5bNxbI8akpc3K/uuw1zi18NX8JGxAOuKkGu/D7RLXj4fPRsnp1o4bJr4DLV1ORmtW8Gt1/eTrhx2zl/8h1crtLQQhRh9qsX+JqJTY6FP3XDa1FE2q0XBjrAsWQ2LOzHog3xRPhhHbQ/eR63Tm49Q5njtQxq1kzihcBDPDI5CD98CY2eziMObtKVRzexdtoC5+vDXCE/PxPhN8cSfjOAkx+JulLeWjLDwSw4pZTMnsGWXTtJHmGCH5gYPnkewy/7DOo5u2c5Kxc6+sGeS/L2JJzV0wVEp7DOPkCosrDyFkvLgvGxZDY8GcyKFXGE+gH9zMQkmIlJcDRbXBnfOHkvm00nStl4l31LQz3VbcWZsQ+wbUM0zhpSwhPW84b92JviPzJocmaLfQrWPM1Tgf/BU5Ovw4drCImOZ2n05eOOao9uI2nagcsGMpek/pEDdyxlfBDQbxj3PDCs6W8zklsd41wB7z6zgaeynf/s12/cz8n/NYehP4LQXz7KtWtzOO90bzu77mRtyN9YOieSwB+AX1AkE5MjmZjsYN8K2ih4bKLg3MbmlcYB/lWNO2F/2bJUsiOftU4s4BfG2MRljE2036OanEWZrSojFvNWehzDZ5qN72cSS6NbtSOV57GlIIjkCZ1V625fIeJLaHQ8iU3fhVbf1UvVnMrexpYFi1t1szO+o3/cSfLNJsCX4JvjePBmx60xld+2sTSsZQHbs0ey9O4gcHLfqrS0UTg/WEp5shn78mBVuZNArYkH7hPdgofPR49Wz7ftjyDadNk1cJlidgzKclnJZRM+LYZrASjn5D5XNVytpfPXE4mYhzVXefULjAQU6Ij0ZL2v65pNdgIbomewYVceJRX1XLxk97eGespK8ti9cn6rApRNKSULf0ZK0ib2FZZT02D3p0vWtGlL7mTJtAWduFjaYY7kFlNSUU9d60jqUj11FcXkbFnMb6PDyc52VrTM4kjCKH67JJ2DJdXUtfgMqjlbmMXmpDFOghwP2jWJlS7ORc25YnLS1rAkeihtdrd+7AlSc0qp/xb4tp7SPU+Q6P6cEx1wkbcXLuT2pG0cKPyc2hbXxEUqSo6wc8lsbp92AMfFwq+orW1uJWqo+6r5canlnv4hkczYvIlN97rIzoVHyMs3Clo/jeHuZAdduJyo+f0oloxbwA5LMWerWi5kebHOen3v+/1ifjv+zqYxPc4sWpGK5VMjH/8qJWtlIi6WIr1cbSpvxc1gw66Cy/Li8n9YM5TlT2Zy5Fx1c5qm78UC5kSP4Uh5JxdEz1c3T/t+qZ66Otuj1X4/MBExIYVVu7dw+bChLI5M68+chdvIKSynplXaurpqSnKz2LzkTpbM3XRZ6pZKKZk7hiUrrZ9L3aU2dnfkjfmsfqOYamO8T/XRTcyf3psKgp48Hz1QSL+Oj93rG+xmt7cOGP4Wd4+2BirfFu4m+wN3EluYNWUTBd4cn4r0Uo2d/bAxm82d/l566NHzHn0a5+5Kazxz5q3GM2fSGt9ddq3D/fzDIxuX/vEVY7+3Gk/uGu/6uINebpx1+JvGtfnfNK61HGgM7dvV/2cvesTubVx15rvGrWe+a9ya9+fGcH9H+0U2Bs7c27j0pLHfmS8ap0R3g7zroUePfNzQOHRHrfV+l3+28e5fduw4W4ubiiyNRa+GdYP/Sw899LiSR+9t0RHpLvwn86sRxoiF0xnMWOO4k1ltSQFrp/0XRcZzH582Vn098795c++n1m1TDNNWLfRMfqVNodNuw7pqSDU5qXc6GVdVQOVrk0g7ZOsi64tfp1d5i3gn30feJcGYVr4q53k3W3MMg1YzJMTY/rYAyzO9aW03Ee+kQEekq425lvYuuu4/Mwzb73BDTdujbi6sfoSMj6x9Mfr98mlmpUzoWB7FLcEDTG3vBEAcEbaR01RRUeRyZxFxZPjLzPi3COuEMl/msDPleffSD4ol6ZkMij5cRtRPAOopfuMJ5rd7xjYR6a4U6Ih0tf0FnLHV+A+eyrvbp5E0wT746UP4zcNIWreC95fcakyacJ4Dr7ZnFdr9HJ39JHlfAvgSnriDe+5p/3gd6ZjC47aaYBMxj59kyvxlBITbTXwQFEfgr7fw4Hu7uN+Y5rruWCbZp696VkV6tuHrmfrcTMJ/BHxziozHxuPOhHAplioaP36PrUvjMZsA6il9exETH3a0kK+I9DTfw9qHrVM1NlrfYsiQIRQXF3f224n0OP4J/86BNbEMaM+0x3Wfc2D9E8xL+6rtfW2Gv8ysLUZh4MscXrprfDec1cqbxDF29y4eHN6+5Vorj25iw+wFVLY5dbiINBvNzW99wNRBwKVyDq76JVnvfurWEVIsVWyIMVH/r2pKP8xg26o1pOaoy5qIt1CgI9JdBIWR9Gg8948bRkj/a/CxD3oavqK2opT8/XtY+1JBO9bSceCW13nomRGceOwmjhZ6KtPiXBh+CY8zJXEiI8NNBPi1DHrq6qopy7ew97U1FP6lrSmaRcShny7lnu1z+PYl94McEfF+CnRERERERMTraIyOiIiIiIh4HQU6IiIiIiLidRToiIiIiIiI11GgIyIiIiIiXueqTEYgIiIiIiJyNalFR0REREREvI4CHRERERER8ToKdERERERExOso0BEREREREa+jQEdERERERLyOAh0REREREfE6CnRERERERMTr9NhAJ24JVO2G6X27OiciIiIiItLdXPUFQ5dMLOLhG4HvoKH6HEX523m+KJ3D37lxkHioWgMmoP4UTJ0CWZ2UXxERERER6Xm6rkXn++DTP4TIO5/g9V+/wH3u5CQTVudYN30jIG0zhHVKJkVEREREpCe66i06NgN8pvLoXU9w3yAfAM69/+/EHvvArWNs3Q1JEdbt4h0wZJ2ncykiIiIiIj1Rl7XoVDRksGzvI2T/w/o8ZPAkRrt5jFkPgKXSum2eBmm/8GgWRURERESkh+riyQg+4MAnF6ybPwvndneTX4BZz0M1gA/EPwGxns2giIiIiIj0QF0+69qeL89dUfrSTNj239Zt32Gw7B4PZEpERERERHq0Lg90PGHRy1BubMdOd3NigkEp7CuOuuLtAAAEeElEQVT9msbGRhor8tk4uRMyKCIiIiIiV5VXBDrkgOUTY/sXsPrG9idd9tpq4m7wtT4JjGTec2nq/iYiIiIi0sN5R6ADPHGweTtyavvThQX6tnwhMIhIz2RJRERERES6SDcKdHzwuYLclGZAqbEdFtH+dOkHi6m3e179YRapHc+GiIiIiIh0A10f6HxVSwMA1zEktG/Hj/MxlNdZN31DYHo7k1lmTyRpVSZ5JwqwbJlP7N0Kc0REREREerquD3TKMvhLBYAPkeMz2BJ6F0N+2LFDVVUZG34Q3O5UpaSvmMptw0dyx+xNFHTsrUVEREREpBvp+kCHvczf9Sx/+fQC+IQwLv4F3plfxOlHj7Clv3tHKjOW5HEv0BEREREREW/TDQIdERERERERz+pgJzFPmsTGhMWMGwBUF5O2bxU7vzxGyXfuH6mfn7FRB2WezKKIiIiIiPQoXR/oBE+1Bjk0cPjAVJ6u6PihTLa5DC6gsTYiIiIiIr1Y13ddu8YfHwA+oehKmmFuhLB+1s36MrC0O2EY8za/R35hPu+9Mk9r6IiIiIiIeIGub9HxkLCpEGZsFx9xI90fMtg4xwhvhm3EcoMv/TTFtIiIiIhIj9b1LToekjLC2GiAv+5sf7r4YWEtnpuiprLac9kSEREREZEu4B2Bzo0Q9wtj+xSkXnC5dwupe/Kptn/hJyaCPJg1ERERERG5+rwi0Fm9rLnbWtbLUOpO4ufvYNGe8k7IlYiIiIiIdJWeH+jEQNKt1s36/4b5Oe4fYltOUXOrTnUZxZ7Km4iIiIiIdIkuD3RG/6Rv2zu58N5KrF3NGiBtuZutOYa4qDBMxnZ5XjqaikBEREREpGfr4kBnBJNvCLFu/rOCk26mTtkMsYHW7eKdMOtj99JHTl7G1oOfkHGf0fGt0sKG325zMxciIiIiItLddNn00gN8pjL39v/DfTdYn9eWfsAeN9LPWwmrY6zb1TkwcYM7776VosYkzPYvleeROvsOUs+4cxwREREREemOrnqgs2RiEQ/f2OrFig9Yfyi9/QeJh9X3gS9QfwIS53asyxrf1lNdXozljU2sfnwbBR05hoiIiIiIdDtdumBowz/PUXIig3XHXubwd24kzIR5Ztg0AhLvgyy333kWQ743y+1UIiIiIiLSM3wPaOzqTIiIiIiIiHhSl8+6JiIiIiIi4mkKdERERERExOso0BEREREREa+jQEdERERERLyOAh0REREREfE6CnRERERERMTrKNARERERERGvo0BHRERERES8jgIdERERERHxOgp0RERERETE6yjQERERERERr6NAR0REREREvI4CHRERERER8ToKdERERERExOso0BEREREREa+jQEdERERERLyOAh0REREREfE6CnRERERERMTrKNARERERERGvo0BHRERERES8jgIdERERERHxOgp0RERERETE6yjQERERERERr6NAR0REREREvI4CHRERERER8ToKdERERERExOso0BEREREREa+jQEdERERERLzO/wfgRJbL9G6CwgAAAABJRU5ErkJggg==;" vertex="1" parent="1">
          <mxGeometry x="260" y="170" width="169.44" height="40" as="geometry" />
        </mxCell>
        <mxCell id="CPHE-589CAZdL8Mg9o2y-8" style="edgeStyle=orthogonalEdgeStyle;rounded=0;orthogonalLoop=1;jettySize=auto;html=1;exitX=0;exitY=0.5;exitDx=0;exitDy=0;entryX=0.97;entryY=0.524;entryDx=0;entryDy=0;entryPerimeter=0;" edge="1" parent="1" source="CPHE-589CAZdL8Mg9o2y-7" target="JSBXhnSBdoEHyfM7yJ-U-9">
          <mxGeometry relative="1" as="geometry" />
        </mxCell>
        <mxCell id="CPHE-589CAZdL8Mg9o2y-7" value="" style="shape=image;verticalLabelPosition=bottom;labelBackgroundColor=default;verticalAlign=top;aspect=fixed;imageAspect=0;image=data:image/png,iVBORw0KGgoAAAANSUhEUgAAAlUAAACOCAYAAAAYYP13AAAgAElEQVR4nO2de1wU5f7H36kEYSAYJBRHJUxZy2Ipj1CaQhcTs5946ZhYakalVmpoea+8pB4ly9QyNbXEOnk9eUsr0LTEUwlpCpkImQUFJkIi5IXfHzPD7sJeYZeLft+v1752dvaZmWd3Zp75PN/v9/k+V5WXl5cjCIKBnBzlZS8eHhAR4br6CIIgCA2CJnVdAUGoVfLyIDMTdu2CH39UPoPjQsoRunUz/dy1q+nn0FAICLBcXhAEQWgQXCWWKuGypbRUEU87dkB6OqSmKuusUROrU2mpcgxn0bq18gKDEDNeJxYyQag7atIRc3ZbYQ/GbYcjBAQoHT/BLkRUCZcX6enw6aeKkNq1q+r33bopjUS7dhAWBj4+rhcnlRtQcw2qsdUsM9Ow7CiVrV4+PnD77aZltN+tIY3mlU16OhQW1nUtql+P77+vfv3NtRGC/ZhrO821OT4+SrtjzGXa7lwFiKgSGjwBwCxgiNG6POBTYAeQCrjIuecyPACtuWqtvgAqOQ+pDWdhDrb/v0zg9xoepxBIr+E+bGH8vzqLTup+nUUoyjUt1B/yUK7x6rLbWRVxEpXbEXtxVXtj/P/mAD8bLWttT6Zarj4jokpo8LQGUtT3TGAJipiqSQPYkKn8QPYBKvURuV1dj41ywuVBTQVBTXC2mChF6SRVh3QU4S44l8pCy1zHpRlV25eatDnGAisdOGO0XGimTG0hokpo0IShCCofYCUwHKXRFVxDAIpos4axVe1yJBXnXmMNofctCLVBBAaLr/GysVWtJpYy7V4rBL5HEWCpOPf+E1ElNEjCUG66WRgE1dA6rZEgCIJQWxhbw4yXK1vEjMWZJT4C/qu+1xQRVUKDIwxIM/o8G5hQR3URBEEQGhbdUKzu3YHeGEIhclCeJTURV41qVjVBqH0ygU1Gny93d5MgCILgPHahCKehgC/wqLquNfAh8HYN9i2WKqHB8iCwAkNQ9kqUXoYj/vEwFJEmcViCIAhXNg+iiCofIBbTzru9iKVKaLB8CgSjCKlClHQK2cAr2De8fTyKG/EZV1VQEARBaDB8ijLYCZR43eqkSRFLlXBZEAC8BIxWP+egmHQtDb0OA/apy5G4PjeSIAiC0DBIQYm7qs4AqDqxVMWMh9NrYaBXXRxduBzJA8YAegy+8X0ovY3K+AAbUXohEzASVO7j2PTYel5uWhsXZhjje+5nU7tOeNfC0QRBEAT7eBTlmTIEJZDdEWrdUhUzHtYPVh5ohSngO8JK4chYDgxopyz/+SWTXv2a7cCYEeN5TF1d/OVSuq4/5aLatmPNm7EW8vL8yAejNjLfwT1Gd36AMfe3w+P3/by/+n98UFTzWtqiR994Zt5zHdWts4b5/934PzrF3sSlPH/CGbWuGUNQgg09MO1teADbUXohm1D85oAiqIYMpf01KNfa+8+w1oX169/xS2be7QeUcWTLUHofE1uZ8/AiosWLjOn6AO39vXB3A8jgvTf6MruuqyYIQoPgQZRnRR5KmIm9cbe1aqkK7gNJqqAqPQ6TX3Jg40tQpi4WnWugYcUt/smE/uHc6NOU69pFM7Jvq7quUbX5+/xFdamUv8usFq0TVqJYrXJQBNYKdf18FEGVitIbAaBRX5b2UwXVueOs3TTOpYIKYO13b7I7H8Cd9jELWHqdmG2dgxf9O27l/Uf7or9BE1SCIAiO8SlKxzsAx+Jum7imOma4HbZOVfNBFMDkAbCo2MY2uacoBrwATp0iWV39W9FZtBCyosIz5rd1Cj8ycJRp39bYWuMw3tdytdHHq5vU3t/vDLLzC6GdktEjP1+bCOAvis4C7gCFFOTXUeXMkAlEofjHh6BkAo9A6XnEovU8whjfYzJd/YFLBexe9yiTimxdmE7g0nri192kWsf86NpvJeNX9mV2PRSoDYprZzD6bj9luTCDpK2TWZyfQT26LAVBaCDMQXH//Qt4w85tas1StewV0Lkry8lzIdGe59alCzaLFJfYLlNv+OlrPv7uFFwCirLY/llWXdfIIcouXbRR4gLF52qlKnaTgyKsclAEVSmKoNLSLujbTCHuZuXCzN/3b+JP1YKg0iiby+PrviT/EnCNjrj7J6OvvaNfljyg0+MPQAE71/XlVRFUgiBUk1QMz47Kc6VaolZEVfBwiFMDkwo/h3s/cXwffxu5/DILG+qUmKUsen8p4WNmEz5lLZNybG9RPynl7wrxdIaCWogLqwk5GCaT9cBosuFGTzP+Xp1iZMv/jNnfbKn1uhWdGscb3yhCzr1NX16+6aZar8PlRPj1qpXqt1RW/1W3dREEoeGj5aqyd87BWhFVyx5TnXXFsGiiAxueOMWv6mJZkaGFzK6wThVSkOucOgq22f5bgbp0lqI/tbUXKNZcVoWnyK79atmkN0rQoWad+hAlpUKvjk+gvwagmNTkyWyuk9oVs3b/e6SdA3CnfecX6VUn9agOXrh1W8/9k/9N0/qW8e5svsV0GoIgCPbyvfre1WopAy4P6gl+HqJ9leXsLTDZqd6Vi4orzQ6uu7EdL8f8k9tvboGXu/qzz5+l+I8f+WLLVyw6chZXjCE0jLyrSnVGLrrkdzS6jgWT4umsdvJP7V3BgLW/O76fSxeojyFB/1Lfx6BYqeYD2/Hku5uLAC84vplXcx29MPW0fGkuj/S+ixB/D7R46JL8DPZvWszHcxZx3t5dXVrC4v19WdotCJp3YlBrLzbn1KIbsrqELuDeQTq80fHgnCD2zHmaPwoaQL0FQRDsZJf6HmG1lAGXi6pJUepCGWxzeCx/1UBxAPZtJHxf1dVmadSUkYMGMuwOM8LGrSleN4bT++lW+NWTVAAWcdXvaHQdM8c8Zp+gsvC/z188u9ppGlyNB4qlqhTFjFsKtAJGU8L9257ml3+t5LuDb+JQdJt3ArGfTKdnUNV8u57+OqLi3yKqVyzz+t1Hpp1z5uw+/CVZ9wwkpJE7+ttGEZIzw7E61QWZz/PF8iV0GxqGr28Y3V7byveLnufH7yU9hCAIlwc56isMNXOBjfKuFVVecJeW5CnbzuB0p+LBmGfieayd+vC7dIrsvV+xKfVnMs+BV0AA994Wzj/vvNZlNdi77QOeTmlsWBHUiXnD/oljA+hd9Dsa+TD1ucfo0VLZb7UtVPWYB1FuBE1QAYzBixj/22mbv5cbNg9n5W+OXJgxdEnSBFUhh5ISWfn2TM7kgVuHSXSelkBcBx8IiGbUe6sZHzMIu8annn+T3VkDCbkZaK2nfyOYbacVtu4o5vy+gXx2Yjodx/Ul+Fo/bn9uBddtm8vXG9bUdeUEQRCcQjpK5zwMy7N0aLhWVPVRkmYBZB+i1uNtgiN78C9NiBT8j/lvJpsm2/wzi+QjWfBxE8w76GpO8blSvjEeEXet4zm2XPM7PBjzzBB636QKqv0fkHCZCSqA/1Pf/2uyth/fPvQ8rbY8yjUnD3OVA/vzfPUtBuuU/sqemXewaoXhqj5/aCYpsWs4sfw7JnT1wa1tH3rHwaoke/ZczNqckzxxcxA0uon2LQBXxQs2ugm35v4ObXKpeD8XLfl2f53CNy9lUDBuHB1buxMUM5meN+n44vUplNaqMPTC3ZGTKQiCYAe7qSeiKjrEMCFhdq17BJoyMqqdkhfq0q9sfzfZcvbySxfqsZhwxe/wYMyIZyosX6f2f0DCml856JT61h8qu/4qcLuJwGbunOy3Cq9NcazNPWbnHgfSvavaTcjawNoV5roJ2WTNSSarax9C8OCOHtNZlTTFrr1n/fkrZQThjjtBLTpB7n476+UgLV/knsn3ONSROPZ+ew58aaVA2RqyZxyh6JkldLvTi6ahfek5LYjkuUM57cpUcib0I0Qd2llUkFFbBxUE4TJHG6hvT4pKl47Z0fsZlgsPufJIZmjejnYtlMW/f/ia2b/X8vGdhdN/hwcjhw657AUVKMk+fVB6FiZJOLz88QYuuXtxuPmlinQLNmnbh9AgZTH3yDZKLJU7uo8Tp5VFz2YBlkpVpSi/IqeSt7tjlqT6QTqn3rmPreuOc/YSNA7oxP3TdxIc6md70xrhRcg1fXm5+zNEXAtcOsnuw7WfHkMQhMsT7Rlhfso6U1xqqdIZPRdO/+TKI5khJIgb1cX8nJ9psGOSnPo7PAgd+Cgdw5Q0ZpezoAJDXpHdlb/w8a+YxLio7Lj9O7zNB00eBPZazbJeq21vExBMS8CusQNn89GMkO5eN1otWiNynuGLJ12182JKP32IrTlvcteI+wnyDKLjC5/ht+FFvvn0Mycf6yGWPv5vujY3WnXqOGs/HcIkyVElCIKT0ERVmB1lXZtdpi5nYWliCA5vUFnXK+PU31FKmVFcjJeP6wL06wO3q+9VPM/VverbBdLM0W2KCimwXeryo7iI83URaO8G13uEVIhmQRAEZ5CJkpLHVmZ1l8qejFwq7GW+NwO1ba0SqpC9/kOyWyjxVFe3iyWx71L6rD/VcC15VtB6Fbsqf/FnPkXo8Aa83W8C7LRW/VZICeAJZL4fwrxpTh564eZdIQbKin+1WrT+4oVbpJpmoRFQcpJvFg8kO9MV0nIL8e9vAbwI8R7I+Pufoes/bqJr3wUsTOrE4zI/jSAITiIHRc60xkxH3QiXiqpco6ATnw7Urqgymoz5puAbYV8DfUg5/XeUMv+dDwhWk31ed89QNpxfQZ9PLi9h5YMiqnKoFE8FUFZEESiiyluP3aIq71yFqAps1QdIdFJtVbyN3JJ/HXHuvo1p/Q73OjtQHYAwfB9fQPQ9fjQGLubtr6VA9WKyipYQv9GD/zz9NHp3L/S3Pw2fL3H1gQVBuELQgtVDsS6qXOr+W2OUvTDYHmekMznxO7+q7oerde14rL5No2Evrvgdl07x/JsbyTwH0ITr7n2MJZFVE1m6kuBHZ7B+zxGO7FnPJBfMy6IFFJod/no2i3zVDerdIowQe3e6PY0T6nbN9H0IdbKPKSTgJlVUlXHyTwdiveoD7gMJnryC+1VBdTZzPVun1ubIP+DSexz5Ra2OuzgABUFwHj+r761tlHNt1NNqyHgedEBwByVnVa3lqrr0I18cLCU0zAO8/8nIZ/LIfOcI35iL82jUhOu4wKn6mGzRVb+j6EeefudLNoy6h+saeRD6yKMsKf6Qp39wPI+W4ySwbPEkon0AdMy48wC+HcIZa29mAzvQNPz3Zr9dQ9qJUehvBlq2dyDR5jiSvxlJeGcP8I4k/r23mNbvOcvJPQP0uOWl2TldjRf9W6tDC8sy2OfKOS1P/Jsvx69waJNL1syYN2rJPwHKOFlnyT+LKSuvg8MKgnDZowWr20qr4FpRVQxpx0F3ExAKM26GuFp0AS5fv51728USeg1c3e5hlrx6Bwf3f8mmrwv4FdNM5BkLVlSZ3sXrGg9Cr2lsuk6b5I0meDVvSkej74rPniXTJEFiE0Kbu5tmT/cxsgi5X0vH5kYi5lIZmYUXqrjhavo7LFGc8zV93kQVVi3oOOxRFry5gudzbG9bM3QEGkf7eejp81o0Yx9JdtoRWqnv5tMlFLP2+HGeuPkmaKSja7ubmJ1hn2Uo840kMjsOI9QdmoWNJPGbaFK+SCZ1yz5FXN0YSQe9jtsiwgkNymVNm1vYY8+OGz2BvqWyWHZsP3blC60ul45zvsAZlrBK8VOXCmSaGkEQLku0x2LdWqqAyTtg4HBlOXoEyqy2tUXRjzz95nZWPteD4KaA943cdv+j3HZ/5YLmU2Z2jnnM4mTIEELvl5+jt9GazI9mM3CfaZmpL8dazG3h1elRlnQyWvHnl0x69Wu2O/l3WKM452sSPm7BuwPacXWjFnR+JpYxr21kvqUEo05hDV//EIfuVoPA9PXTA84TVdp/bkkfZv34GWndnkbvDiFho+iaMapq6gVzpMcz7+VApk6NoaUn4Ksjqp+OqH4jzRTO5W876xvS7n707gBlHPnpPVz69zuL0AXcOywMb+Di6XSZUFkQhMsW45gqa7g80ih7AexT29mAKJjn2KR3NaY493v6Tn6L2Vv+R/bvZ/nb2M1TdpZTOf9j08I1TKrPkynj2t9xcN9GZn+pZhW9ph2PTYxljEtDUpJ5MnYRaS70NGoXvsXEnpfe5JMf1AuzxT2MaOnAhbnuIaZ1HsS8dfvIyi/l/EWj78pKOXMyg5SkmYzvfAt25URvNJSXI29Sln//ksU5DUSYZD7PF6szOJ2zhU9fGiiCShCEy5ZC9RWAYaYYS5S7+hU9nvLyDOV1egnlwbVwTHnV/9eyjPIKjrwX7NR9n4PyXFvl3MaVbxp+pPzo6CPlRx9/p7x/o7r5H7qG7VTqMDqt/D8tver8vDTk1/ie6vnsOa7O6yIvecnr8nrtg/JyKA+1UqZWxsQlz4YNqgXF5x5Y1qc2jirUa9rMoL0al82FNJJfc94QhtYoPQmbkT3n5/LqlyeV5eb3MLpj39pPGtn8TV67R/kjyjLWMPGEWHucgk8QD9R1HQRBuKzQ0vNYm3ys1hIN9H0RMtQg7uipsOx26+WFy5Q20Qx7bT1HvplE5LUApWR8MJlnnTjyTyPPjjJph1/kvZ+UC9M/cjLvt6nF3B+N+rK0x/34NwLOZZCUPJcsmxsJ1sj6UxWl/noevrwnDBAEoZbRnin1QlTxPfScpio9dxi2EBJqOb5KqFsSkk9T/tMXLJvQB50PQCnZa8fS84ltTj2OrdEZpqQze/sMducDuNM+ZgFLr6uFC7PR/cx8aDJd/YFLBexeN4TZ9uVeEKyw9tgRNcjfjwf6redlfx0NcWpqQRDqH5qosjZVTa2mxMzeAHGroBTADya/VptHF+oLpX8VkpGynLHR7bnpkUW1l7vMEpfWE79uBUfOAY386Bozg/4uPmT/TjPof5M7XCrjyLbniT8lbj+nkP88c/apU+L46IiLW89Xo49wdPR6xtdtzQRBaOCow7msWqpqfcrjbbNhWGNYFAZxz9X20YW6JDHa19kTuziPsrk8vtqd9/voSf14FGtdfLi1+5+nvfdc9FnP0/uY5HVyHsWs3d+TX3JeZEzXB2jv74W7m+2tBEEQbKHFVLWwUuYqlIh1QbhsGAKsAFYCQ+u4LoIgCMLlQTcgBfgIeNRCmYY6I54g2KQ2JtwRBEEQrgzq1eg/QahtfrddRBAEQRDsQhNV1gZDiagSBEEQBEGwgTZVTb0Z/ScIgiAIgtCQqTVRVV5eTnl5OTqdzpm7FQRBEARBqHNybHwvlipBEARBEAQHsGStElElCIIgCIJgB9qochFVgiAIgiAINcDWnLIiqgRBEARBEBzAUq4qEVWCIAiCIAh2oLn/PCx8L6JKEARBEATBDsT9J1xRBADt6roSgiAIwmWNpazqTWq1FoJgBz5AmNHn1phewJ0wmF49gIhaqleDocMShrweyY8TH2bfN7ayqgiCIDQAvMbw8Mdj4L2H+WRtel3XxiIiqoQqVBY1ANcnfMLg8GtN1jU/ko578RlKsnfy+eZ9VvfZCuvzJXWrTkUrUQqkqsuFKDOJV2bC5o8ZZiE37ZEVj/DwTCdUpC7psIQnlw4l5GpoN2cJv0Z350Rd10m4QgkmcOo64nvpcMtP5uOJD3Go/j4LhXpNBHe+O4fIFsCEnVD2Tz75pH52GOu1qApFcecEqMvuWLZKaGWskYohyKwyhcD3ldbtqvQ5E9v+1PpCGIY8GsbLLTD9nyKwHHBnQuLDVr++27HqWcRYGIHyf/9o9LnyObB2Tq84vMbw8OuKoOLvHLZNf7qBCKphdJj9KNER4YSeXs/w2Pi6rlCDxm/oOro/fBfh7U+zqd0t7KmrikS/xYjH9QQC+MYwYvJchvcbV1e1ERo0qXz72grClg4l5GofIid+wm/Zt/HtobquV1XqXFR5AA+iPPi7quuMRYAzseUm6l3p88s2yhcClTteu82UqyzObH1ny2pj/L2xK6ym/1tlQWOOHOBngNDHue+BYDzBoqXK3P9jjtoURrN6PcIs4xWTZnBsaNtaOror6cGd775K5HUAhex77QH2pNTPnlxVIujeL1oR+8V1XZeGj65PH6J0AKfrtiKBvngafXRr7IpW/fKk5bt/MjXaB8hgVRtrwjiBuG/mEuULZCznyV5qh2TSYZYNdXy6uILkcYx/KrHqPsrSWHzLHRwws03oyhLGdlafQqeTmdbxPtPOXO/PmT0vGr/K+3eUQ0+z7LXWvPhKFL5Xh9L39R380ac7J+pZm1Enoqob0F19tyR0jB/ImlBJV9cbk4PtuXgqY0l8mHN7GYsWMFjPtPKVBZA5QWRLnDkb4/+usgXOWMTVyPIW+jgez2s3yl+8YsP9J7gWr4Q59GynXKmnU2bVW9O4cAWRNJOPe61myJ0+uBVlszXptbqukeAAfn6+hg/ueiJGB3PgjexKpSbR6TajJ6RvIIHgOgv5J915++aDvBAXisd1UQx4bQz/fm6+q45WLWpFVIWhWKO6qu/G5KA86Hery7XhYrNmPdnk4L7MCTFzLrVmZspVhwpLEcr/lGlmWbjC8JrD//UPVa65UymsTqhfjYxwpbKN/QOas7+uq3Elsnwc43dXNR10mrKa2BDg9D4Wj1lURfyczzV0jj2bKk+x82Xg5g4dOr8AbzxnusGzfYjwNl11tROqb43ixJfY2em/PNwGfO+eQEzP+Wzb6uKDOoDLRFUo8DSKS804QLkQ+BRFRO2i4QuBQqq68Ky5+wTB2dwwfSi3XA1Qyrcrn+a3uq6QIAh1S942CsxYJ4r+Xq0unaNg7xoK7NjVmeMZoNPhFxZNF2/YU6R9E0ynbnrcgKyfswlpFeyUqttmO/sWbifijR5cjw+Rg5aQvPXpehNb63xR9c47fJiTw+1Gq3YBO1DEVF0N/nDrtZRHnuhJeNsAmrmrKy+WciY3g+RVi9m5YjnnLW0cMIzwSS/wUEQwLX0NNqiS/Gy+27mYtYmJlBSZ2a7Cl1xIytjmJG3S0/LVZQzppaelqu7PlxSStXs5S58bxxmrvyAYz37T6R8fwx1BPni6G745X1LK+bO57FgYwtYkK7sISSBqygiiw4MJ1IIdLpZyJjebveteZ8tCK/+B09DT8qW5PNL7LkL8PXBT15bkZ7B/02I+nrOoFurgBAKCGTHpMR6JaEeQr/YrzlOWf5IDOz/ilcQ0ssxdExU05eGXhjGyt56g5k1xb2yl6Om9vNBxAZ+Y+87rTaIj1B5pzia2Jjno9vMeSOjEBB65V2e4trX74r1Etr6/xrH92cVSxh4bZn5giW4Yy44NM/OFdg9V/cat63Q6x8UQ0UFHoLeH4d64WErJn9k2r6sumy8xWIchJkX7Tx4w3Kcl+RlsfG0QKZvTLP+siOn0HD2M6PYBNPO0XAwgc0Uj5pkbaarto4NRO1VWyIlDyXz8xjgyUyu7X4zqXwUdg49dYrCZb2oU22IFQyxQNY9ZEcejxhJ5DyR85iRio3UEqv/H+dN5HNg8k6XTFpnZgSHGSDueW6/VDEmIITzIR2lvLpaSm2XnaMRqnA8FwzVeca61fekDaNZYrceRDSwdPogT9XAElJvWJuWmkXGjji7eOjonRLPn5WRlvfdEuoQBZPPd5jwCnw3GEw+uaQscdXHlvhzFzkNRDOrgQZN2PbjnHtj5pf2bxyw4QNJwPT6Ukr19Mvc+nIilM+koTkv+GQoQGQnDh3P7uXNkAmOAYCAKmE0dCSrvgXT66E/enj+MKOMbA6CxB82C9MROmssjlaPUNfptYeoXSxnRQ2ciqAA8/YPpEjeXBbu+o5Mt317TScTt/Y6pcYaGGsDN04fQHglM37gUy+1wDJ3WfceC2QPpEmIqqJR9eODpH4zOSs6CZqO/I3HHXOI6GwkqUP8DHT1HLyVx1xZCvC3uouZ4JxC76yumxkcTaiSoADz9dUTFv8Xbez8n1NKkSvUE737D2PXFHF7ocauRoAJww90/mMi4CezYNZUXLF0T3m2ZteNdXo/vTIi/DUFli6eiVCsVHP5sqmO9tbC3GLFrNWP76U2vbe2+mLqaBRtX4+fKa6LGLGXU8knEResJ8fcwvTcae1RcV4mbl9LMnt0Z/ydGv9vTX0fc/K8Y9VK02c2axX/F7NWTiL3TtqCyRLPR35Go7cP4d7j70PLOPoxdfZhRUwdWb+cNkCYRqxm1dzUjehgEFYCbbwCdHn+L2YsTbOzBg9B3f+Pt+QPppAkqgMYeBLaNYVTSYTpZGaPizPNhsi/tfm/sQWCHgUzdab0edcUN12viOI39R5SWJSTiiYrnlGeCOrjk5zT25pyjBABf/NvXRu1yOLwlXR3XEsCdAybYv+n9SSx8To9PE6CJB8G9ZpA0xXk1c4qlqjfwIUBqKoSFMeT0aVb9/LONrWqDGLokLWOwTuuBF5K5exs7Nm4jtxg8b47ijq7RdIr0Nb9578+ZPVsJxoZScr/dxserNpBbDM3CBvLQ4Bg6+ALeeuLf/pyC7vdZsE740GnidKXBL8tjz7rlpHyWgdvdI4l7PJKW7uDZIY7+cfGsMmNp8nz1LeLDlAu8JC+NlM3b+O6rDOUivjGSDu2CaanXcaHM/M/wfOkw0+N1ys1wsZDM3evZ+H4KZ/Al8P6BxMZG0tITPINiGJW0lCm94m1YzapDDF2SptMzyAMo5FBSIivfnsmZPHDrMInO0xKI6+ADAdGMem8142MGuaAOTqD3M+yYHY0/AGfJ/zaZZav2cqQYgsKieWxwd9r7At63MuLt5/ml+wLWmlwTbvSfP5b+IUoTX3Z0M6+8tIG1h87iHaLnhXnPM6hDU6Xoz5vpf+8HWLaNtObOOzV7TyaZqx2wUnknEPf2SMK9gbI8Ut6ewsb3l1NSFIznAy8Q+9Iwolp54NlhIGPnpzF+mDOtGotZOiTFSFT3IX5lH0IAsjYwfvoGM9uUUnLQ8h7PnMzgYFoaxw/uI+On01D52tYNY+z8VKaMWW55J553MTZJR3/H6bMAACAASURBVKg7UJLNnqT32PpVIYF9XyC+l9IL7/Cv6YTOSTYNWwhbTfzoSKWduJjHnremsPb95ZQU6fF7di4jhkfT0l35DXtm3sKqFWb6xP0+Z8KzepoBJSeTWfnaaxzYmQze0QQ+PpH4p6Jp6elBh8cXEndkH0nrDPtInTiIDCPFWBE3QzYbh0wxG9NkHDvjTE7MeZLx7xsJ9FtHMmFspH2C1oRgYpfrlDazKIOt761hT3ohgQ+NYEg/Hc0AvwdG8EDbRHZasIo0u3sSY909gFJO7N3Axv9sI9c7ip7D4+gS5AHuOh6ZOIn9Q8yYDGtwPirjGXGY6Tql/S35eR9r311ERpGOLqMT6BniAZ5W6lFPyNyexpmISJqFRNK5Lew8OpDuXRV3X9bexZQwsfYrtXYjPwyPINIHvEK7cQOz7At9uDUA0ye+Bz5O9FzWWFSNBirCYmfNgvHj+V/7WpGqNvGcNJeBmqDK38ebw+82NffuXcOJFbDRW29iNVGI4YHnNEFVSMrL95KUZHi8Fexdw5sLY+iyeZ0i2vyjeSQhmlmaabRyXdzN1GHvGqaVfcfbz+pxwwPd3SMhqbJJO5rOndUzXpLG0pg7OGTykF5DirU/wXs6/f+lCqqyDJKGPUSKkcm6YO8iDiUmELdjLlH+4KmLo7cFcVcTPF99SxW3peyZeYfJg+X8oZmkxK7hxPLvmNDVB7e2fegdh9PrUHOuZ9ZzmqAqZNfLY3gy6azh673LWbtwMxM2z2eYzg38O/NkwvusfdlozKp3Lx7rqvYAf97MoBiDaCrKSuOV2Jdg23wGtXWDVp14rPMHpO21VJ+htPqHuvhLJj84MLQ4dMF0ovwBsvk4LoSdFfdFNiU7nyNp53Z+27aFuLbg19X6w8tx0jiz11gqRhlcc3+fpmCvIy7HxbzZOZ7zZtwnBXsXcWjjasYmDSTUHQL1sfix3HIcSSsdoUBJ1gZm9e9HbpG2n20s9T/MqAgP8NZxWw/I3G7YrOWIGEWIUcqe2XcbXdtpFCy8j2l5WufMg4ieI1i1onKupkkMnqi2NT9vYMq9/QwdiqJkchcmM22v9jt8iIqfzsZ1g1TLAJw/ZBobY4ibKaXIzrgZp5G1gYIso89+T1TTna9YHauei0XMa/ob03sEAMHoYmHnHPN7cHNXOnB75gxi1dJt6to1rNpeStN9Iwl3h2btoghkJrkmW9bsfFSmpU4HlJL1n3HMmmRo3zd+5YHf3gQ6eVqqh/I/eHceqD6HzBFQO6PNkrZxMCGSLt7B3DE4mp3bBxIeBJDB3sRkiK4DUcV8Dv/0KpEdPcAnmJA28NsxezbbxoGJ0URrf2ppBl9/6Lxa1cj99wqKoCoFYgHGj3dClZzFMLr30KliKY+tk+627D8vSuN8ZQtT7xeIbqUsnkldZCKoDGxjT8IGtDYkpOsLli/+sgxWVRZ1AG8cqNje7x/m/EU6fKrpTgDguT50Ud0YWZvGmQiqCooSSVq4T204PIiInVuDA5rD0KshawNrzfXUySZrTrL6X3hwR4/pTq6DE+g9gO7qNVGU+j4vGAuqCv5gVsJmo2uiL5HGX0cHEaQunkzdbMYK9QevfKX9P9fTxlpW1TY6rlevjeIT+xxw/c0luqPS2Tiz9z0jQWXMNlLW7lMfFEpDWj9JMyuoKkgfxP7j6nJTDysudpX8ZN40eogrZHPokHZOfGgZbrpJq0BVJJeksd/ctb1uO4fUlFFuN6rJMI2pGEFVyp73+pm30KYPYkuaeoZVa8Flj9lzAblfHKkQioEh1lyApWSuMBZUKkXPcUi7JvwDaVN5Mxecj4LkKSaCSqnHOA5qDYW5egAQTOzK1cy2+EqgiwVHS80YSaDJw2wmO79SbrSQu18gtG84gcD59GSjwHUAHwJvcUV9zPPrL9rN35pWUfZulci9PZ5leUoaGXs3MPOJnjz5mePHttTeVltUPYOSf6kQiMTxVAQup3Ms4Wpszvn09Ww0b0CyiF/X9hVWqgObrDhcj04hVevBBwVjKd1a5n8eYo/Zh1cmuVZz9C3i4I/q6fPUE//JV3TpZ/8DLlyv1Sib1DnbLBdM2sABreFvpael3Uewg7Z9CFWVRO6RbRZ7dBzdxwm1Dp7N6l9gVWTXtij6tJADm/ZiMQ796Hr2GV0T1Z+C5zxl5nSbRrtmeKmLp393IGJx6F2qZQWyvrXiclifXTHkupm/3v79N1TKskkabsGF/2Oucyw+ZaVVLDehEWrnryyDQ1ass5lHNTtGbcWt1CWFpCRaOBebsu07F0c3MG+m+Tbv59zKGQ8NOPt8nD+6hlkWAvRz8y3Xo27xwK2SCSx34wHFkhYUTXxXpX0+tEtNsXCksE7CNUp/L+SCuuzhSOznt4t4Mjqc9l36MvnD6oWoW+rLVctyOAR4G0WpRVF3I/qscndwRY/wxI8bHd685T+0h3ouJ9ZZK5lN1slCaOsDBBLYA9huptjF6o8tyHx+Cimaey4oksGzP2fwq4VkffM1O7a8zoF1lhTjQFppvY3T2TZGoyVyIm8u+OL8BG63+VRY8AJ7rWZZr9VWiwMQEExLZ9bBCej/oXUJ/yDL6jVxngMnCxnU1ge4niDjayL5JCeB9kBQRC/0VI6Zup5X7tYc/H9wbKeVw7QJrIgNOH/OqhPYlH8EVFhswkdfYtlo25v4BdqaBKouUUaUxvYIJ8S/6kAOuynJJstSY7bpPsZb6Dn+nFsIOh/w1NNpaDCZla1V/XoosZdAycm0SoIgmMDmaoiCu54Rxy7ZUVHVGlDverJO5oLtIla5eK4aGzn/fJw5mWZRcJx4qjlPWt23AxnVXcUFtVOfvIYDJ2PoGeRBM2+gaB/JC9UyR0/Xzajt305TjPLY8rpuAOZnfHUu1uawhWpYqkIxCKpY6qmgAhO5eL7EQTMV0LSaDbNbdRt0axQlktR9EIuTszlzUV3n7kNI5xhGzP6cZQd+I37qSDMbBuLZtHqHdGoCt3aBjgeqFhXWbiyIHTRzrxp5Zw/uxtdE0Wb+m6qan1r1YvnGAfRXA9O9Q/S8snGOEk8FlKV/yixrcUzVDKZoGeR4C1xyph6O+QbwTuCRvd8xNT6aDkE1EFQ14MRig9u6y9iviHt2GJ7eAHr8nv2cqa9qsZl5pLxX2erdhxv8HT1iKfmSjMxFyPlQ8KGJei8V/Kq5LdewY7ehw3Dm4DazeSab+V0ZI1SdZqlagZItfAJK3inBmFJKXKUEitZw4Kk1HPCOJuTxF+jc6y4iWvsouUS8lSHGIUEezsk9U1aKNa+Tw/xWSAngCWS+H8K8ac7KCNIQ+Jsik2viPAeO/kFZRDDugHeHPsza2Md0PkKAvGReeWKHZRcjQGYupwnFF3C7JgqsD1mooCD/NMpcAIWkjG9OklWrW30mmk6rpvOAalQ+c2gDK99ezKGdpp0oy3mcnMTxfZw43YcQX8A9gKjRS4kavbRSoVIOrXjSTBhCGvlFKF3t08nM6ngfWZWLCLWInA+FAPzNBCCWJO0jKy6YEPLY+7750AG3plWiBl2HzzVcoy4Wn3K9lQoMU9xZiqlySFSNRpmCJRUl71S95sdczqAMvW2pmw44loiiwqRPIC37ARYfPMGEBKl/c1kuP1scqeUkipLJWphM1kJY5R1NyPC5DHlCT2Bj8ItOILZzIhsr6mDs0gsmxBtOWHxKJ9BS83jm5zrX7ZZ3rkJUBbbqAzg/6WBtcLjimrieEKvXhBvhFdfEHxwzvia8uzPxX4qgyj+0n3zfdoQE+qi5qs5Tlp/Nvk0fMWHOD+TbqtApQ3yOb4sw7BVVJUVKcxC4P53OnoH8ambMkTMwN12TeT7hrgUnFWtO/gFesVLSZK7PoK7ElaQSuB/4fQ8bX3iZ66g6/+Zth3YRWAQUf08EcJOV7/1x3OUc+GqC4n4py2b/N9DSOLmuzUSRyZzR7knfYFp6Y8NNL7gWOR9WOTqIWW0G1XUtDNwYoLYxpZyuJWO6rWnB7RZVAcBL6vLwalenFtmZTe5sZc49z/bRhHpPIdOBm+PEwWzOR+txw4fwhyaRtM5CQG/YXCK0kR/HD5idxdtlFCWTNecOZnlnseBfwUAAIV0Bo4d4xrE80CnDjyMSokmxkPKBoX0IV71CBUdTnOt6257GibJo/Nyhmb4Pod6JDp0L8wQz8PWFTH4smmCySV4xlp4vWgnEdwKfHDzJrGgf3PEh/KFOsM7CrGZhA+hWcU38gBZBFgHc9Egb7ko/DOezSR3yPv/F/PyRlZ25t2PmZk4dQ4snX6dpI6C0gO7A9WA+U7kxc24Bo2Hoz9gq73I2w4LNFZ/sDok/+TLEGT7GWCo3Mdp6GVvf2yBzzUCafQR/n8og5NjvVb4PQRnMY2kOPM93xhH4eE8ABj7SifJlpiUdnfbq74pYJA+aeIN1c6dl9M8lsfzFGHTXlpKxeQZ9H1/ktKzT9ZmsnDzooLaZL8WQMsm17crlQR75JRBak5Hq1SAkRLME5PGHI5NM9prE+hfj0JHBhsVjqxWsbikroN2i6iUUYbWSehxHZUzRaySnxxEa5gHekYxIWs20uEEUmGtgvPW4USmtwsINpD6hp4s3NOucQFy/NVUTvHkPJGp6jJK0kFL2bKibWdjdGl9TsVxSKSKy4O1ksnoNJAQI6fcWXTbeUnUUYsAk4p7SEvRlk7zY2ZakcSR/M5Lwzsq5iH/vLab1e87yaJEAPW55adYDH8csY9GYaFVo6IgZt5ytGYH0XFG9GjY5mc91P5taOQKoJFAWLufC+bu44arz3JBWyG/+V/FjfrnJflo3akzr9A+gzQcV60x+57JFsExZHK2+qs9xOHC84pM9IzYVS48vzW+7Hf9rAC5RdiqbnGO/WN7o6mvh77/MfrVbfY8c/BIPtDayS/31E58krrGSuNSYDoQO6UNbb+DCaQ5uWECOPb3O0Me574FgPIGLef9j68eVRohc24XQPvfQ1qcJVxefofnBFH7+7vsqZvtmHboR4Kkc2/j71tgOSgUI/cYge1pZKVd5MvkKdiQqLxXrgcumpFLVDeE2rjOeMfcD0FJ/M113/0SpWtaYQqy05fcvI+n1gejUJ4T+sXmsL9hG+AuXv6wyaTN7LyM27W42WkzuGYxbAJzPu8z+l97BVnJjmaNQST7tWZuDWsZwy81qm/NbBj/Yk6MKgGFsfXcGMQEAOibdqSOgoL3daRVsjUu3S1QFoPRmS1FiqRoG2RyYkURm0jBC3cFTN5DZu6LZv3s9yeuVnEzGGdUPvVR5XrGZbFo/kDuG6vDEh6jZhwl5SM3KWwzN7n6C2H7RhGqjeg4lWci/VFOWMuJgX5odOcDBI3nk/riNE78q33jeHMUd3XsSdad6mo1HY2gcncLHyTFMiPYBdx2D//Mn4duS2LJ+n5JR/aEneCRGX+GuKNi52EzeIj3NOutME6QGXFPx2e3qAPw6GwUnluZR8K2pRSzzjSQyOyrnolnYSBK/iSbli2RSt6j5sW6MpINex20R4YQG5bLG6ogXmNXWDZ9dpn348ItUcR21w+gmaNKEa5s24cayCwSWqt35mZNBNUK2wpYD7VdYsrbi0zVQNefQpYuV15i4rK5pfRO3tVBF8IWzZDRxp9jDDS4U8csvRShJ8S9y9vdisstsd2CujvuAwV0D+O22Thz/7//x9ix7XICnoe1ko9kCqmbq97w5ipDb2hMRoSekyddM63ifFbfYSL6YNxvTVjiD/MQ1Vl15Bg4ReMcONaEj8MwosjeuIeWzDKP0G6WUHNxgOsdmZgd+XZ9AJzXx5qWYJJKWpXDmxki6xPalsz6AvxpjsB6fTjb7O7q8lqzEXFn43jqTGHxgupoLrpRLq94g42clIvGvX1L5QzP5nj3BmeM/VRXqAPjg2+tpHvA6Q7OsTOASfxef5s8//6Tk3AWgCde5NyH0j6qzVESYq9Kxr2HB1xUf73fg11RcqyfeRXe/amMNDYUWLdDlBPCKaqtKRxFlGsqdWPN2ol5g0mYG0HP2YcL7JbNzx3ZDtv67I2mjiyS8YzBuX7lmHsX6gXOD8KtcA1Uo5MzebfaNJLynGyGq+f6Pw5uwmpnIhEiCjZWRh47o+Gj4zL5rUUlhbRm7RNUAdUcrsRzxXi9Jj2feGF/GzuujmCW9A+jUaySdelV2rpjPFXJm5kO86fcVo3oF4IkHLTsPZJSZC6Lg20XMGvCc5fxLNcTT04eQO6MJuRPAwgVZks3H4weZGY2RTdZTg1i6brUy1U1jHzr0GkmHKv9BKSc2T2HaGHONwwjiV1qYABfFkje7s9GK08lM65hs+nBKj2fey4FMnRpDS0+4Lq+Mgf+4hYHDlUxxzY+k4/7bHtiwB8gnDNMLt0qup+H3VKlHAEruNItcuABnqo7TPh9yIxf8fCqtu4GL5SdZ8GGGyfp0GhM28hmG3OVn8vAod7+a0rCbKz4XfbucYQN2VLXU/NmMRasn0F29qZupL6AiKWjFPk6m4fPaPF7ZaaWJ+eRPrn/uX9xyNbS8ZzTXz0rhD8ulDay7j1lB3zFhuB6/xuAZoKdnvJ6e8WbK5mOjkVtE2smFhgzFAH8VOuQqyp2UyE79XCXo3DOYLnGT6BJnXKKQlLEbKnV8xvHxmhg6DNWp9+cwJnSuNBlz3j6WpgUQ38OJ81CYYNz58qDR4PFYzH14sZDMncuZX2Xy9ELYfIhOH60m/k7LERtfqe8FO59j/AhDIsmq7uNAbhj9Fs81PYF7semRAvYrtsXzhVkc//EXPDAVZhXWuR//Bz+qK9XOiwc27i/SYG8afwW1pvhGxcZ38ch08hd0qihxW1w//vZWfuPf/MSouOR6lTZFQW0zK86HB4F3xjD4TvPO4YILDs242cAo5YL9asUmVZ4VVchgVZttVjvUGiEDorgegDwOb3XERbGGr3+IQ3erwbLu66cHbIsqTYtZmxDMLlGlxVK9aU/h+sbOfszrPJDQiSOJ7aqnZXMPw+zbZaXknkwjNWkRW83mGMkma8wNJGx6i4dG96VzW6OJNS+WkpuTRvLSKaRYzBPlDFLZv/cu3NoFE9jUA09jn/XFUkr+zGb/pvfY+HaiaS/ehG3s73cHh/pNp398DHe09sGz4j8o5MTRr9nyxhQO7LbPWaNxfXoqjcuUBuXakzl4/ar2pM9lMw8wHpkcCgSse8hKcLf9KE38dYSE3cyNzTxoxCUK/UtZte5/JvK4cm+azn14c0EvmnrbmWci4yNeqSSq4CKbFi1i0Q/deWX0g0S2vRHvimviPPk5B9ixdDmvryu0EMpylqKisxCg1KGsxGicpbvp5MreQXoGLV6E/9inGGkpJ1HxKPYdGMotER7QIooH4luzeql9cwCeeeMOxn80ki7TRhClDybQ1zDJ9fmSUgpy0ziweQM73k+02WEYOzUR/YKRRLf2gL+y2TYtDodmMitK5OOYXA5OTOCRe3UmdbH6G2bewpScdTwSH024NmluxX2xmI/nLOL8pMOY04pO449CzlxEuacullJSMQdnpfu1sTZ5ug/jY+Mr/afb2D+gOQd6LeWRJ3oSHmI6MXNJSSG5B8znpSukctxVLrwxjp2PzyX2iWg6BBrd7yoFyZatK4pIC6T3hFkMu7cV1zaGkl3L2fTqan4yKmdsBTYWdteezOHak4ZrMOhLy+PEjeexTwVKVw+h3edNOeffHN9joHVTtN9nzo3pGqp/Pi4LgnyrMV+jilcgfuDalDgdPuaBCEUUXTi0kZ1fOrJxMk/GLiL8UAJ6+0bSVGCI4LLMVUC5le/pDWxEyWsWa+OA5eXKrtq3b09GRuWHkVCfMR6pFYrh4mmBwV1RuVdbXUxGcAGZgHF4b2UxZC5upGHixoh1K3khzA04z5EVY3h4ZlW7kneInpEzhzNMtVqUpS/nln47LO+2zRKeXD2UkKuBwhTe/r/unHBgHkChBkRvYfq7MYobOD+ZWWYnVdfjN3Q68WNjCHEHyGPrkBuMRulefoRhGFhR2eXZ1WjZ3rg1c+RBhWXeuA3R2ovaE2BC7dKaW1YdZFAHDyCPlNEtHRRVCssyyhmmXpgZK26i/RO2besPouRxXgkMtVDGpqVqlPq+xJ5aCvUCY1HkKoFkLIwKge+NvjNu7CqXvaLx7sWDYar95eh6BpkRVKBMrDxrwKdEHhtAe8Dd3YZl7djT/GdLFBP7tAafKAZMH8O/R8+3vo3gFFoOuEuNq7MyrQppFKx4iKTIP5karbiTPB2LAm5wVGcwU+U2yViYGbddWpumvcBMeEAlRIBdPniM+oR+HRQTwOmU+dUSVLSZQXst3uJCGsmv2ResoF1vVaMbDVgVVaEoF2sekuizrtEsScYNTzMMJvea9PisCSRjt0IVd5rgGHdfj73Jmr2HBlfEWJWdsR0lVTxjFOtv+Q9923nge8+rPJmQybJEc/MlCc4k0N9W1hqNGEK1qFpOk3/EVTVquJRi2t7Yk0rCXLvoLAFm3BZqdbl8rOYNlA5LGPRoqOJVOZXC6gQHO49tohn2xEgShvdBdy1AKRkfTOZZO0cOas9Ya+4/q6JqgPq+0r7jCQ5g3AgYm8dbYThxxj01ezHucYlAqmdsT+NYUTT+3kDbvnyy8mo++E8yn2z/Q0306UbIne3o1q8PI2NvVSdv/oMd79njJ9rOt0+9zA0b5hB5nQchcat4+Kd/8sknYiN0JYcOZkOHYMCHqImHKQlYQ/L2NZzJUnu+ATH4dY2l51NxdFHzLZSkb2CntemHBLsxti7Z6vhXR4BpMV+VA/S19lOzehkLsQaRcqgh0mEOfV9Xwxz+zmT9C91xZGBiQvJp5kUZP1FLyV47lp5P2J+HrIX6bq1VtRpTlY3ygNdj34UiMVWmN6x2kxpblOzPMm3AkunaWBg5miBQqBu8+z3DjpnR+De2XZaSX9kxZzIjkxyYNKjDEp5cqjY8p1J4+/7u9XB01eVEDF02rmNwB/vu6oJvFzHvqefM58sT6g2aNUvr2GpB+eZTYlTFuHObCpRhKsQa1Cj6ekEEd378JX3bABfz2DP9HrY52GHURFXpX4Vkf7Oe5dNnkpjiWBqkjShC25omsiiqQoEMlAvA3mmzLndRpYkk45EunVBEkqPuN+MbS7vpwCCOpMdzGRMQzLDRfXik660ENTcd8UfZWYryszmwfTOz3k6r3hQZHd9nyGth/PDCbXx7yFmVFiwTjGe/icTG9SQ8xIdmnqYCSxkplsyWFTM55OAIW6F+Ytx51gSYNuuBvc8CLewiHSVB8C6k3bdKiwk8vHI4F952XFA5i30o590Xy54ei6JqNDAfeAMYY+cBG7Ko0nokmiVJc8M5GtCtiSVj15vWQ5EbRhAE4cpAs2oZP0O0Trit0A4RXPUTLWWXr5UyFmOq/k99/6/TqlM/CFNfrVGG9tprzjUO5tam5tAElIwcEQRBEIzJw+CNsBTvpYmrbhjCRFobvTQrmHFMl7Hg+h3l2VN5xLXgfEJRzpWt2D2zokpT1peDWAhACbjvinKBmusdVO4VGF+gEqskCIIguALN8mTuOWNOcGlGAGPBZYzW0U9FeZalIiltnIUW8mNLvJoVVZoLbBMNd/jog8BgDCMYQfktn6LMFp+OQUgJgiAIQn3CmuDS4nsjUARXBAbBpaVCMkYzkKSj5FhKR9JDOIo22dJ+G+XMiipNkdnauD7SDcVUql1UeSgpIf5Lw7e6CYIgCEKm+rIluFpgCHnpRlWxlaPuZ7/RPsXQYB7tv7OlI8yKKjWdisM+2quuusrBLZzLCmCIupwDvAp8hKhxQRAE4crAkuDSLFndUFJEtEYRXq1RPDvGpKMYJDSxlWdmf1cS2oh/e1ypZkWVFrjdkALfZqEIqkKU0YqSsFQQBEEQFLTA+criKAyD27ATisjSvFWVxZYmKnZjiD2+EmK2NCuVPcLSbEqFbBRVe40TK+VKtEmfC1GScl3uJ1gQBEEQXIkWpxWGkoPLWGxZwjjtQymGECLjQW8NcTYPzQs2FNsGG7OiqhxFmAQ7vWrOxwNIQ1HZUVzZJkpBEARBcCXa6MMIDJnmwfHZQsxZvepr8Lw2u4y1pJ8aVdx/WibYhmLtGYJykj9CBJUgCIIguBItZstSviZL89pqGeeN00KYSw2hBct/jyKy6lpoabnDUrHPwtbgRdW/1PcldVoLQRAEQRBKsc/AoQV/ayKrFYaRiqGYpkOqS6GlTaq9w87yFkVVQ5jwUUuMVohYqQRBEAShoWDtud0NQyyXJaGliav96n5cpVk0w80mO8tXEVWaf/R3p1THtWjZ0RuKVU0QBEEQBOvsoqrg6obiVrxdfddeGjkoIsuZ1qwHUcScI/m7qogqLUdVfREqMeMhqROMfBzWFJt+pwnAhjaSQBAEQRAE+6kstLRg+U4YLFutMbVmGSc31TLK22PRikCxUGl5L990oJ4WLVU1NaWN73mEJ24GLkFZ4UmOHFjJ/CNrSL3kwE76QNJgxSK1/H0ojIVtRl9rIw0agqtSEARBEATnoI0e/Ej9rAXIa6MSNbdh5eSmOShB9rtRRFamWiYU+D+UGKoAo/KzgXccqFeVlAopKKovmJpZqypElTG/f8ak/4xirQPCKmExzItSlgtTIHyEMrwRFEX6IUreiKE1qKsgCIIgCJcfESiC6XYMFi1b7EKZ2m4TjuugKqLKkXwM9uDv3pfR90+mfxt3AE7ueobo9C8d2seyjTBMHZeZsQraz1aWh6Ak5RJRJQiCIAiCLXxQLFedMBVYeSjWq03UzPtlUVQ5dxa/e1j46Ds80AL4bQuPf/yiY5Mbe8EX2yDaDyiDNYMh7nvlj9mOiCpBEARBEOqeRpVXtDZXqsZ8yY7japT5DSFVkn3ZpBienK9aztyhz2SIxhDZ72N5S0EQBEEQhFqhiqgC1wR+bz51skbbZ2+A5d8ryx63wqSHDe5JEVWCIAiCINQ1hoHXkQAABlNJREFUZkVVfZx7B2DsEoPgix4IXo5s3CaBrdnnKC8vpzz/AAt7uaCCgiAIgiBcsZgVVfWWFEg+ri7fDgkO+ConrZhBTGs1CYOfnpGvJxHt9AoKgiAIgnCl0rBEFTB5j2E57C77twv2qzR/tl8AeudUSRAEQRAEoS5ElTvuNThq9npDnqrAlsq7PTFga/ZkmLg1C7/ZRmL1qyEIgiAIgmBC7Ymqs0WUAXAj7Vs6FA1lyk+QV6IsXn2N8m5PDFjyUz0ZNn0D+35II3nps0Q/IJJKEARBEATnUXuiKnc9u/MB3NF3X8/SlvfTvsokOfZx+rS68LfyZl9gfTZrpvblrg7h3PvUItKqd2hBEARBEASz1KL7bwvPrpvL7pxicA+ia5832fTsEY6O3s/S5o7tKVebWFnNH7/fqfUUBEEQBEFwnAYXqG7Cj8qbQ9nZBUEQBEEQXIBZB5yHuZU15iEW9htHV3+gMIOkrdNZfSqdLAcmV9bw9VQXDsI5lFmmBUEQBEEQ6pIqoqoQCHDFkQL7KoKKMlJ39OXV/OrvyscLRUn9DUedUztBEARBEIQaUcX9p0394nRh1dQbdwCOcyS3Bvu5GYJ9gXTl43a7Nwxm5OIvOHDoAF+8O1JyVAmCIAiC4FSqWKryUCZVdo0LsOYE94VggIPKZ3uD1IMXrGfhcFVK3bqQ5NYe+EpaBUEQBEEQnIRFS5UDM8DUKglh6oKqptLt3K7PrcEmn30i+zLDabUSBEEQBOFKp4qoUrMU1E9RdTPE3A58D/wGWRjqa4vEzQcqBCMA1/q4JnZMEARBEIQrkiqi6mf1vT4KjhmTVNffJuXzakc2nn8vYzfbM6GNIAiCIAiC41i0VLWo5YrYJAqGdQLKoPxTZdVKB3exPOWIwVpVmEuG82onCIIgCMIVThVRpeV8CnXygSKurcF8f8AX01Tr2VdwVaGS8NNe159GTGQwPupy3r41MqGyIAiCIAhOo4qoSkeZSy/CqYcJo1frIGXxz3wOO7h1wmKI9lOWi95S3lc5sL2+1ySW7TnO+v5qsHpBMvOeX+5gLQRBEARBECxjNqN6KtANxVpV02zl/u59GdHtRfqrke9F2V+y2YHtR06DGVHK8pmd4JGpiL5Ndm29jCPlw9AZr8rbR+JT95J4zIFKCIIgCIIg2MCqqOpG9UXV+J5HeOLmSivzv2TOV2vs30kfmNFfyZlV+gO8NwrGAJ+i5NOymwulFOZlkPzBImZMXE6aI9sKgiAIgiDYgVlRtRsYDwwG3nHCQcr+PEnWD+uZnb6EVEfm+tsAI3WwKAzi+sM4dfUSu3fwJO2vetKhugqCIAiCIFSHq4Byc1/kogSG66gfExaHAhkoFqpgFBegIAiCIAhCfaFKoLqGlq7g6VqqiC0Gq+8fIYJKEARBEIT6h0VLVQCQBvgAkdg/HYyryEbJ8l5fLGeCIAiCIAjGWLRU5QETUILE36616pgnAkVQ7UIElSAIgiAI9ROLogoUF+AuFFHzTK1Uxzya68/+AHVBEARBEITaxaL7TyMUxQ1YCOhxMJWBEwhAcf0VIgHqgiAIgiDUX6xaqkBxt81BETfbUdyBtckQ9ZhLEEElCIIgCEL9xaalChRRsw8IQ0m8GUvtCJzWUDHpcTC1byUTBEEQBEGwF5uWKlAEVCzKBMYPUnuB6/NRBN0ERFAJgiAIglC/sctSpRGKYrHyQckXNRTXWawGAB+iuB/1LjyOIAiCIAiCM3BIVIHiAtyOEmPlKlegliMrAOihHkcQBEEQBKE+Y5f7z5h0lGSgmitwH0rskzOZjyKoViKCShAEQRCEhoHDogoUQRUFpKJYrtKA0U6q0AD1lQeMcdI+BUEQBEEQXI3D7r/KzALGq8upwHCqP6WNuP0EQRAEQWioVMtSZcwEFHdgKkrm9TSU0YEBDu7HA1iBuP0EQRAEQWiY1NhSZcxo4GWU0YGFwKvAG3ZuuwIl0WcOymi/QmdVShAEQRAEoRZwqqgCxdI0C0UggRIbNQd4B/OjBLUJm4egCKlIZNJkQRAEQRAaHk4XVRphKFar3urnTBRX4SajMr1RRvq1RhFUUVQ/HksQBEEQBKEuuaq8vNwloqqCnBwYPhw+VaOkfHwgLAxSU6FUtV0NGQKzZkGAo5FYgiAIgiAI9YP/Bwab/ztwlTBcAAAAAElFTkSuQmCC;" vertex="1" parent="1">
          <mxGeometry x="520" y="452.66" width="157" height="37.34" as="geometry" />
        </mxCell>
      </root>
    </mxGraphModel>
  </diagram>
</mxfile>
